<?xml version="1.0" encoding="utf-8"?>
<!-- Generator: Adobe Illustrator 27.5.0, SVG Export Plug-In . SVG Version: 6.00 Build 0)  -->
<svg version="1.1" id="Layer_1" xmlns="http://www.w3.org/2000/svg" xmlns:xlink="http://www.w3.org/1999/xlink" x="0px" y="0px"
	 viewBox="0 0 118.06 72.079" style="enable-background:new 0 0 118.06 72.079;" xml:space="preserve">
<g>
	<g>
		<g>
			<g>
				<polygon style="fill:#0F0F0F;" points="70.223,33.422 66.887,37.018 70.699,37.018 				"/>
				<polygon style="fill:#2B2B2B;" points="66.24,20.962 66.703,23.146 66.469,23.484 65.963,21.32 				"/>
				<polygon style="fill:#2B2B2B;" points="63.528,24.564 65.748,24.284 65.994,23.956 63.783,24.184 				"/>
				<polygon style="fill:#23211F;" points="70.916,36.267 51.808,36.267 51.808,39.054 69.41,39.054 				"/>
				<polygon style="fill:#696969;" points="70.916,37.616 51.808,37.616 51.808,39.054 69.41,39.054 				"/>
				<polygon style="fill:#525252;" points="69.124,24.956 65.481,22.237 64.649,23.275 67.864,26.558 				"/>
				<path style="opacity:0.4;fill:#525252;" d="M68.351,25.938l-0.487,0.62l-3.215-3.283l0.461-0.574
					C65.748,23.324,67.906,25.484,68.351,25.938z"/>
				<path style="fill:#525252;" d="M64.919,23.55l-0.27-0.275l0.832-1.039l0.216,0.164C65.448,22.792,65.189,23.172,64.919,23.55z"
					/>
				<path style="fill:#525252;" d="M67.594,23.818l1.53,1.138l-1.259,1.602l-1.365-1.395C66.872,24.722,67.241,24.271,67.594,23.818
					z"/>
				<polygon style="fill:#0F0F0F;" points="69.52,23.379 68.657,22.92 66.24,26.002 66.807,26.997 				"/>
				<path style="fill:#0F0F0F;" d="M63.116,23.951c-0.317,0.417-0.393,0.894-0.17,1.058l0,0c0.227,0.169,0.662-0.038,0.974-0.457
					l2.486-3.338c0.317-0.421,0.386-0.894,0.162-1.061l0,0c-0.222-0.169-0.655,0.037-0.967,0.454L63.116,23.951z"/>
				<path style="fill:#914A17;" d="M72.423,25.313l-0.551-2.558L69.42,22.92l-2.836,3.67c0,0-0.243,0.211,0,0.799
					c0.243,0.588,3.797,10.016,3.797,10.016l3.596-1.936L72.423,25.313z"/>
				<path style="opacity:0.5;fill:#914A17;" d="M72.423,25.313l-0.551-2.558l-1.649,0.11l2.465,11.05c0,0-2.972,1.709-2.888,1.951
					c0.229,0.59,0.581,1.54,0.581,1.54l3.596-1.936L72.423,25.313z"/>
				<path style="fill:#363432;" d="M49.673,29.91c0,0,8.187,0.62,11.66,1.189c0,0,1.139,0.205,1.456,1.761
					c0.307,1.556,0.772,6.79,0.772,6.79H53.87L49.673,29.91z"/>
				<path style="fill:#5C5C5C;" d="M51.684,34.567l-2.011-4.657c0,0,8.187,0.62,11.66,1.189c0,0,1.139,0.205,1.456,1.761
					c0.073,0.387,0.157,1.007,0.246,1.707H51.684z"/>
				<path style="fill:#696969;" d="M53.115,30.733c0,0,4.744,0.353,7.769,0.845c0,0,0.995,0.177,1.258,1.531
					c0.276,1.352,0.603,5.096,0.603,5.096h-6.45l-0.692-5.26l-2.408-1.71L53.115,30.733z"/>
				<g>
					<path style="fill:#696969;" d="M60.748,31.884c-2.665-0.436-6.676-0.757-7.584-0.825l-0.048-0.326c0,0,4.744,0.353,7.769,0.845
						c0,0,0.995,0.177,1.258,1.531c0.276,1.352,0.603,5.096,0.603,5.096h-0.162c-0.092-0.918-0.357-3.668-0.577-4.789
						C61.743,32.068,60.748,31.884,60.748,31.884z"/>
				</g>
				<polygon style="fill:#525252;" points="67.683,23.983 65.628,22.42 65.537,22.533 67.463,24.263 				"/>
				<g>
					<path style="fill:#303030;" d="M60.815,28.905c0,0,2.64,0.172,2.746,1.174c0.105,1.007-0.91,1.153-1.983,1.1l-8.266-0.969
						c0,0-0.544-0.064-0.753-0.649c-0.205-0.589-1.205-5.985-1.486-8.667c0,0-0.068-1.523,0.862-1.555
						c0.936-0.038,1.83,0.549,2.18,1.623c0.343,1.07,1.005,6.669-0.07,7.909c0,0,0.571-0.431,2.729-0.312
						C58.325,28.646,60.815,28.905,60.815,28.905z"/>
					<path style="fill:#0F0F0F;" d="M51.936,19.338c0.393-0.015,0.773,0.08,1.11,0.269c-0.02,0-0.051-0.006-0.071-0.006
						c-0.457-0.015-1.059,0.272-1.048,0.798c0.009,0.377,0.155,0.721,0.27,1.076c0.162,0.492,0.312,0.988,0.397,1.5
						c0.167,1.081,0.208,2.163,0.235,3.251c0.012,0.514-0.03,1.154,0.404,1.512c0.316,0.267,0.883,0.069,1.115-0.218
						c0.096-0.118,0.166-0.238,0.222-0.362c-0.086,0.762-0.243,1.387-0.524,1.712c0,0,0.317-0.243,1.369-0.312
						c0.223,0.42,0.319,0.9,0.805,1.12c0.593,0.272,1.407,0.287,2.04,0.392c0.964,0.144,1.926,0.277,2.901,0.4
						c0.76,0.102,1.526,0.138,2.294,0.197c-0.285,0.472-1.068,0.554-1.877,0.511l-8.266-0.969c0,0-0.544-0.064-0.753-0.649
						c-0.205-0.589-1.205-5.985-1.486-8.667C51.074,20.894,51.006,19.371,51.936,19.338z"/>
					<path style="fill:#262626;" d="M51.808,30.079c0,0,1.064-1.897,2.583-1.933c1.522-0.033,0.862,2.294,0.862,2.294L51.808,30.079
						z"/>
					<path style="fill:#303030;" d="M52.836,19.707c0,0,0.786,0.075,1.216,1.779c0.432,1.707,0.528,5.324,0.284,5.786
						C54.337,27.272,54.209,21.458,52.836,19.707z"/>
					<path d="M53.554,29.384c0,0.251,0.201,0.458,0.455,0.458c0.254,0,0.459-0.207,0.459-0.458c0-0.257-0.205-0.464-0.459-0.464
						C53.755,28.92,53.554,29.126,53.554,29.384z"/>
					<path style="fill:#262626;" d="M53.766,29.384c0,0.136,0.104,0.244,0.243,0.244s0.25-0.108,0.25-0.244
						c0-0.139-0.111-0.251-0.25-0.251S53.766,29.244,53.766,29.384z"/>
					<path style="fill:#303030;" d="M63.455,30.302c0,0,0.147-0.969-2.506-1.3c0,0-4.37-0.43-4.809-0.367
						c0,0,4.946,0.456,5.898,0.749C62.979,29.672,63.455,30.302,63.455,30.302z"/>
				</g>
			</g>
		</g>
		<g>
			<path style="fill:#292929;" d="M88.978,20.562h1.785V5.816c0-0.099,0.053-1.119,1.017-1.349c1.693-0.39,3.803-0.934,3.824-0.94
				l-0.448-1.725c-0.017,0.006-2.109,0.543-3.776,0.932c-1.889,0.443-2.396,2.212-2.402,3.082V20.562z"/>
			<g>
				<path style="fill:#0F0F0F;" d="M91.38,2.734c1.667-0.389,3.759-0.926,3.776-0.932l0.12,0.457l-3.928,0.945
					c0,0-1.771,0.48-1.893,3.004v12.813l1.308,0.305v1.235h-1.785V5.816C88.984,4.946,89.491,3.177,91.38,2.734z"/>
			</g>
			<polygon style="fill:#292929;" points="83.113,21.332 83.113,18.701 92.432,19.868 92.432,22.687 			"/>
			<polygon style="fill:#292929;" points="83.113,22.451 83.113,19.808 92.432,20.982 92.432,23.801 			"/>
			<polygon style="fill:#949494;" points="90.504,5.36 90.504,19.021 90.138,19.021 90.212,6.627 			"/>
		</g>
		<path style="fill:#FF9921;" d="M70.993,19.113c0,0,28.241,2.532,35.232,5.431c0,0,1.209,0.543,2.177,3.165
			c0.963,2.623,4.581,17.341,4.581,17.341H75.22L70.993,19.113z"/>
		<g style="opacity:0.4;">
			<path style="fill:#CA7123;" d="M102.648,39.95c-3.89-2.469-8.491-4.275-12.903-3.341c-4.716,1.015-8.671,4.688-11.631,9.214
				c-0.86,1.31-1.803,2.568-2.509,4.017c-0.153,0.32-0.297,0.651-0.423,0.987l-4.189-31.713c0,0,1.1,0.123,2.902,0.337l3.815,21.095
				c0,0,3.46-8.237,17.304-6.945c10.868,1.013,15.674,10.043,17.239,13.871c0.439,2.174,0.731,3.634,0.731,3.634h-1.526
				C109.905,46.082,106.457,42.362,102.648,39.95z"/>
		</g>
		<path style="fill:#0F0F0F;" d="M83.61,22.151l16.059,2.02c0,0,5.419,0.817,6.429,2.644c1.003,1.826,2.009,7.122,2.009,7.122
			l-3.385,0.108c0,0-2.532-3.988-4.294-4.129c-1.767-0.138-16.128-0.772-16.128-0.772s-0.625,0.188-1.132-0.879
			c-0.502-1.073-1.26-4.795-1.26-4.795S81.919,21.799,83.61,22.151z"/>
		<path d="M83.907,22.755l15.431,1.909c0,0,5.118,0.524,6.209,2.858c0.878,1.885,1.831,6.416,1.831,6.416l-2.656,0.108
			c0,0-2.532-3.988-4.294-4.129c-1.767-0.138-16.128-0.772-16.128-0.772s-0.625,0.188-1.132-0.879
			c-0.502-1.073-1.26-4.795-1.26-4.795S82.215,22.394,83.907,22.755z"/>
		<g>
			<path style="fill:none;" d="M83.093,28.159c-0.164-0.243-0.317-0.487-0.477-0.729c0.061-0.09,0.116-0.171,0.169-0.263
				c0.117,0.38,0.223,0.719,0.328,0.962C83.104,28.138,83.093,28.149,83.093,28.159z"/>
			<path style="fill:none;" d="M107.001,32.284c-0.047-0.19-0.094-0.393-0.147-0.602c0.092,0.138,0.179,0.279,0.27,0.415
				C107.081,32.166,107.038,32.225,107.001,32.284z"/>
			<path style="fill:none;" d="M83.707,28.985c-0.011,0.021-0.032,0.043-0.043,0.062c-0.062-0.095-0.127-0.187-0.186-0.284
				C83.558,28.861,83.633,28.928,83.707,28.985z"/>
			<path style="fill:none;" d="M100.059,30.026c-0.032-0.049-0.065-0.095-0.096-0.143c0.064,0.007,0.123,0.011,0.181,0.011
				C100.112,29.941,100.086,29.985,100.059,30.026z"/>
			<path style="fill:none;" d="M101.423,25.05c-0.127-0.03-0.247-0.062-0.37-0.09c0.054-0.083,0.106-0.166,0.159-0.244
				C101.285,24.821,101.354,24.939,101.423,25.05z"/>
			<path style="fill:none;" d="M105.897,28.397c-0.034-0.089-0.065-0.176-0.095-0.259c0.041,0.07,0.088,0.139,0.131,0.208
				C105.924,28.359,105.908,28.383,105.897,28.397z"/>
			<path style="fill:none;" d="M102.861,25.494c-0.254-0.093-0.508-0.182-0.756-0.261c0.101-0.152,0.197-0.301,0.297-0.453
				C102.552,25.02,102.702,25.257,102.861,25.494z"/>
			<path style="fill:none;" d="M82.068,24.684c0.021-0.04,0.052-0.085,0.074-0.12c0.03,0.117,0.053,0.238,0.084,0.362
				C82.172,24.851,82.12,24.765,82.068,24.684z"/>
			<path style="fill:none;" d="M82.469,27.208c-0.148-0.231-0.297-0.462-0.444-0.688c0.143-0.217,0.286-0.432,0.421-0.649
				c0.084,0.33,0.17,0.664,0.254,0.982C82.628,26.971,82.547,27.09,82.469,27.208z"/>
			<path style="fill:none;" d="M96.378,29.972c-0.065-0.092-0.123-0.189-0.181-0.284c0.117,0.003,0.231,0.008,0.348,0.015
				C96.493,29.795,96.428,29.884,96.378,29.972z"/>
			<path style="fill:none;" d="M98.775,29.948c-0.029-0.044-0.061-0.089-0.092-0.133c0.063,0,0.116,0.005,0.169,0.005
				C98.825,29.864,98.799,29.903,98.775,29.948z"/>
			<path style="fill:none;" d="M97.568,29.903c-0.038-0.044-0.068-0.1-0.1-0.151c0.062,0.005,0.125,0.005,0.19,0.006
				C97.625,29.81,97.593,29.859,97.568,29.903z"/>
			<path style="fill:none;" d="M93.411,23.927l-0.116-0.015c0.017-0.025,0.038-0.053,0.054-0.079
				C93.369,23.865,93.388,23.897,93.411,23.927z"/>
			<path style="fill:none;" d="M96.039,24.252l-0.435-0.053c0.065-0.099,0.134-0.205,0.203-0.307
				C95.88,24.008,95.96,24.132,96.039,24.252z"/>
			<path style="fill:none;" d="M94.695,24.088l-0.231-0.031c0.03-0.054,0.072-0.112,0.106-0.164
				C94.61,23.956,94.655,24.026,94.695,24.088z"/>
			<path style="fill:none;" d="M86.689,23.1l-0.038-0.007c0.007-0.011,0.016-0.021,0.016-0.025
				C86.678,23.078,86.685,23.087,86.689,23.1z"/>
			<path style="fill:none;" d="M82.353,25.57c-0.158,0.243-0.319,0.483-0.47,0.727c-0.145-0.227-0.292-0.444-0.429-0.659
				c0.159-0.243,0.313-0.486,0.465-0.731C82.068,25.126,82.203,25.339,82.353,25.57z"/>
			<path d="M99.816,28.326c-0.139,0.22-0.286,0.446-0.428,0.666c-0.154-0.246-0.312-0.489-0.473-0.731
				c0.142-0.223,0.287-0.446,0.434-0.666C99.504,27.839,99.655,28.079,99.816,28.326z"/>
			<path d="M85.864,29.215c-0.297-0.013-0.551-0.024-0.762-0.036c0.117-0.187,0.243-0.377,0.365-0.571
				C85.6,28.81,85.726,29.012,85.864,29.215z"/>
			<path d="M84.68,29.166c-0.245-0.018-0.381-0.021-0.381-0.021s-0.16,0.051-0.381-0.041c0.117-0.189,0.243-0.371,0.36-0.562
				C84.415,28.746,84.543,28.952,84.68,29.166z"/>
			<path d="M87.129,29.271c-0.312-0.013-0.609-0.026-0.882-0.036c0.146-0.223,0.284-0.446,0.432-0.669
				C86.828,28.802,86.974,29.038,87.129,29.271z"/>
			<path d="M83.558,27.429c-0.148,0.238-0.294,0.47-0.445,0.698c-0.105-0.243-0.211-0.582-0.328-0.962
				c0.108-0.153,0.203-0.313,0.303-0.466C83.24,26.945,83.401,27.187,83.558,27.429z"/>
			<path d="M88.312,29.271c-0.014,0.021-0.024,0.036-0.037,0.052c-0.284-0.016-0.56-0.026-0.829-0.039
				c0.144-0.225,0.291-0.453,0.438-0.676C88.022,28.826,88.17,29.048,88.312,29.271z"/>
			<path d="M82.943,26.479c-0.082,0.126-0.162,0.246-0.243,0.374c-0.084-0.318-0.17-0.652-0.254-0.982
				c0.017-0.026,0.034-0.055,0.053-0.081C82.645,26.018,82.792,26.246,82.943,26.479z"/>
			<path d="M98.775,26.709c0.14,0.218,0.282,0.442,0.427,0.662c-0.145,0.223-0.287,0.443-0.427,0.666
				c-0.146-0.223-0.288-0.443-0.43-0.666C98.487,27.151,98.629,26.927,98.775,26.709z"/>
			<path d="M96.378,28.51c0.157,0.243,0.316,0.485,0.47,0.735c-0.101,0.154-0.197,0.308-0.302,0.459
				c-0.117-0.007-0.232-0.012-0.348-0.015c-0.1-0.149-0.196-0.297-0.297-0.444C96.061,28.995,96.218,28.753,96.378,28.51z"/>
			<path d="M83.707,27.652c0.138,0.218,0.285,0.444,0.427,0.667c-0.142,0.222-0.285,0.444-0.427,0.666
				c-0.074-0.057-0.149-0.125-0.229-0.221c-0.077-0.13-0.164-0.254-0.248-0.375C83.39,28.146,83.548,27.9,83.707,27.652z"/>
			<path d="M94.718,29.621c-0.08-0.007-0.155-0.007-0.228-0.013c0.035-0.056,0.069-0.111,0.111-0.17
				C94.638,29.497,94.674,29.556,94.718,29.621z"/>
			<path d="M95.172,28.552c0.147,0.226,0.297,0.459,0.443,0.692c-0.082,0.133-0.174,0.271-0.262,0.408
				c-0.111-0.005-0.224-0.011-0.34-0.018c-0.096-0.144-0.181-0.28-0.272-0.42C94.886,28.995,95.022,28.772,95.172,28.552z"/>
			<path d="M93.98,28.484c0.155,0.243,0.313,0.488,0.474,0.731c-0.088,0.131-0.166,0.249-0.247,0.377
				c-0.158-0.003-0.311-0.01-0.462-0.02c-0.085-0.118-0.161-0.239-0.235-0.358C93.665,28.972,93.822,28.726,93.98,28.484z"/>
			<path d="M95.897,29.672c-0.09,0-0.175-0.007-0.262-0.011c0.044-0.062,0.087-0.131,0.13-0.197
				C95.807,29.535,95.85,29.602,95.897,29.672z"/>
			<path d="M89.068,28.541c0.16,0.243,0.319,0.487,0.477,0.729c-0.02,0.036-0.049,0.069-0.07,0.107
				c-0.278-0.011-0.566-0.031-0.83-0.038c-0.015-0.021-0.03-0.048-0.046-0.069C88.757,29.028,88.909,28.784,89.068,28.541z"/>
			<path d="M90.266,28.608c0.158,0.252,0.321,0.502,0.485,0.751c-0.016,0.026-0.031,0.048-0.05,0.074
				c-0.266-0.015-0.532-0.026-0.786-0.034c-0.031-0.044-0.053-0.085-0.085-0.128C89.977,29.048,90.116,28.826,90.266,28.608z"/>
			<path d="M98.629,24.578c-0.158,0.243-0.316,0.489-0.474,0.731c-0.15-0.233-0.297-0.458-0.444-0.69
				c0.032-0.05,0.062-0.099,0.093-0.145l0.816,0.101C98.629,24.576,98.629,24.578,98.629,24.578z"/>
			<path d="M93.443,29.556c-0.048,0-0.101,0-0.155-0.003c0.032-0.038,0.054-0.075,0.075-0.115
				C93.395,29.477,93.415,29.52,93.443,29.556z"/>
			<path d="M92.791,28.552c0.145,0.22,0.288,0.443,0.428,0.662c-0.066,0.108-0.136,0.215-0.205,0.325
				c-0.216-0.01-0.435-0.02-0.652-0.031c-0.03-0.049-0.062-0.097-0.092-0.149C92.443,29.09,92.618,28.821,92.791,28.552z"/>
			<path d="M82.924,24.681c-0.143,0.221-0.285,0.444-0.424,0.663c-0.093-0.141-0.184-0.278-0.274-0.418
				c-0.031-0.125-0.054-0.245-0.084-0.362c0.116-0.181,0.232-0.365,0.35-0.545C82.631,24.237,82.776,24.458,82.924,24.681z"/>
			<path d="M93.835,24.584c-0.154,0.237-0.313,0.483-0.471,0.726c-0.165-0.253-0.328-0.502-0.488-0.751
				c0.139-0.218,0.28-0.433,0.419-0.646l0.116,0.015C93.549,24.139,93.691,24.357,93.835,24.584z"/>
			<path d="M93.977,24.357c-0.084-0.131-0.17-0.257-0.255-0.39l0.475,0.06C94.126,24.134,94.05,24.247,93.977,24.357z"/>
			<path d="M95.046,24.62c-0.148,0.231-0.297,0.462-0.451,0.69c-0.158-0.243-0.317-0.489-0.468-0.726
				c0.108-0.178,0.22-0.352,0.337-0.527l0.231,0.031C94.811,24.263,94.928,24.441,95.046,24.62z"/>
			<path d="M92.729,24.337c-0.116-0.18-0.232-0.361-0.351-0.536l0.647,0.081C92.929,24.034,92.835,24.184,92.729,24.337z"/>
			<path d="M96.229,24.552c-0.152,0.243-0.306,0.489-0.463,0.731c-0.15-0.223-0.293-0.443-0.435-0.663
				c0.095-0.141,0.18-0.279,0.274-0.421l0.435,0.053C96.101,24.353,96.165,24.452,96.229,24.552z"/>
			<path d="M96.378,24.333c-0.011-0.014-0.022-0.03-0.022-0.038l0.041,0.004C96.389,24.308,96.382,24.319,96.378,24.333z"/>
			<path d="M82.068,24.231c-0.096-0.46-0.161-0.761-0.161-0.761s0.027-0.088,0.096-0.195c0.112,0.169,0.227,0.344,0.346,0.52
				C82.257,23.944,82.164,24.088,82.068,24.231z"/>
			<path d="M91.545,24.271c-0.139-0.208-0.277-0.421-0.413-0.627l0.749,0.096C91.772,23.92,91.66,24.094,91.545,24.271z"/>
			<path d="M95.187,24.4c-0.058-0.097-0.121-0.186-0.174-0.275l0.321,0.042C95.288,24.247,95.237,24.319,95.187,24.4z"/>
			<path d="M97.425,24.62c-0.148,0.22-0.286,0.44-0.435,0.663c-0.157-0.243-0.315-0.492-0.47-0.731
				c0.047-0.073,0.093-0.146,0.142-0.219l0.62,0.073C97.33,24.479,97.372,24.546,97.425,24.62z"/>
			<path d="M87.101,23.728c-0.142,0.216-0.285,0.439-0.428,0.661c-0.143-0.225-0.29-0.444-0.427-0.661
				c0.137-0.216,0.273-0.426,0.405-0.635l0.038,0.007C86.828,23.302,86.963,23.512,87.101,23.728z"/>
			<path d="M84.863,23.506c-0.152-0.231-0.298-0.466-0.448-0.688l0,0l0.825,0.102C85.117,23.114,84.993,23.309,84.863,23.506z"/>
			<path d="M86.096,23.506c-0.116-0.182-0.225-0.355-0.339-0.525l0.626,0.076C86.287,23.207,86.192,23.352,86.096,23.506z"/>
			<path d="M82.492,23.579c-0.111-0.173-0.224-0.342-0.328-0.507c0.148-0.146,0.367-0.291,0.707-0.358
				c0.032,0.045,0.065,0.087,0.097,0.137C82.808,23.093,82.648,23.333,82.492,23.579z"/>
			<path d="M89.587,23.613c-0.17,0.263-0.343,0.532-0.519,0.802c-0.148-0.231-0.301-0.464-0.443-0.687
				c0.075-0.122,0.152-0.244,0.233-0.365l0.622,0.081C89.518,23.501,89.556,23.553,89.587,23.613z"/>
			<path d="M90.824,23.613c-0.158,0.237-0.319,0.481-0.475,0.724c-0.16-0.243-0.318-0.487-0.466-0.724
				c0.021-0.038,0.042-0.075,0.063-0.112l0.877,0.105V23.613z"/>
			<path d="M88.477,23.506c-0.043-0.074-0.084-0.138-0.134-0.205l0.242,0.031C88.551,23.388,88.515,23.446,88.477,23.506z"/>
			<path d="M88.329,23.728c-0.155,0.239-0.307,0.481-0.466,0.725c-0.157-0.243-0.318-0.486-0.476-0.725
				c0.111-0.17,0.223-0.34,0.328-0.501l0.319,0.037C88.126,23.415,88.234,23.569,88.329,23.728z"/>
			<path d="M91.545,26.172c-0.161-0.245-0.317-0.488-0.478-0.726c0.161-0.248,0.317-0.49,0.478-0.73
				c0.151,0.24,0.311,0.482,0.47,0.73C91.862,25.684,91.703,25.927,91.545,26.172z"/>
			<path d="M91.514,28.628c0.152,0.243,0.311,0.489,0.463,0.731c-0.02,0.044-0.05,0.085-0.079,0.126
				c-0.269-0.008-0.534-0.026-0.807-0.034c-0.012-0.028-0.034-0.059-0.055-0.092C91.195,29.117,91.353,28.871,91.514,28.628z"/>
			<path d="M106.688,33.212c0.166,0.248,0.318,0.492,0.473,0.728l-0.917,0.043c-0.009-0.01-0.02-0.026-0.025-0.036
				C106.372,33.704,106.533,33.46,106.688,33.212z"/>
			<path d="M105.506,31.363c0.142,0.228,0.284,0.453,0.428,0.666c-0.158,0.249-0.317,0.495-0.471,0.738
				c-0.143-0.216-0.285-0.438-0.433-0.669C105.188,31.855,105.346,31.615,105.506,31.363z"/>
			<path d="M104.745,32.097c-0.166,0.256-0.328,0.512-0.489,0.758c-0.157-0.24-0.312-0.482-0.475-0.728
				c0.162-0.256,0.328-0.51,0.49-0.764C104.433,31.615,104.584,31.855,104.745,32.097z"/>
			<path d="M104.152,29.271c-0.159,0.244-0.312,0.489-0.471,0.734c-0.153-0.246-0.312-0.485-0.47-0.734
				c0.159-0.243,0.317-0.487,0.476-0.729C103.84,28.784,103.997,29.028,104.152,29.271z"/>
			<path d="M105.314,32.986c-0.163,0.261-0.325,0.515-0.485,0.757c-0.138-0.21-0.286-0.433-0.428-0.666
				c0.163-0.249,0.321-0.502,0.485-0.756C105.034,32.55,105.177,32.77,105.314,32.986z"/>
			<path d="M85.009,23.728c0.159-0.244,0.316-0.489,0.475-0.728c0.149,0.238,0.308,0.48,0.47,0.728
				c-0.152,0.239-0.313,0.481-0.47,0.725C85.325,24.209,85.168,23.966,85.009,23.728z"/>
			<path d="M102.638,28.383c0.161-0.246,0.312-0.489,0.472-0.731c0.144,0.218,0.284,0.444,0.428,0.667
				c-0.16,0.239-0.318,0.485-0.47,0.728C102.925,28.826,102.779,28.605,102.638,28.383z"/>
			<path d="M97.172,29.733c-0.117-0.003-0.23-0.007-0.346-0.013c0.06-0.085,0.114-0.167,0.164-0.256
				C97.055,29.556,97.107,29.648,97.172,29.733z"/>
			<path d="M104.745,30.184c-0.161,0.251-0.318,0.493-0.473,0.738c-0.147-0.231-0.296-0.464-0.448-0.693
				c0.157-0.243,0.316-0.489,0.477-0.731C104.448,29.726,104.595,29.956,104.745,30.184z"/>
			<path d="M107.081,32.611c0.127,0.536,0.216,0.954,0.265,1.169c-0.17-0.259-0.332-0.518-0.508-0.794
				C106.919,32.866,106.996,32.74,107.081,32.611z"/>
			<path d="M87.884,26.252c-0.154-0.234-0.307-0.462-0.451-0.688c0.143-0.225,0.288-0.444,0.43-0.662
				c0.148,0.225,0.295,0.455,0.445,0.688C88.17,25.813,88.022,26.028,87.884,26.252z"/>
			<path d="M86.674,26.293c-0.159-0.243-0.312-0.492-0.47-0.729c0.157-0.245,0.311-0.488,0.47-0.73
				c0.154,0.239,0.313,0.479,0.47,0.73C86.987,25.807,86.832,26.05,86.674,26.293z"/>
			<path d="M86.816,24.614c0.144-0.226,0.285-0.447,0.427-0.663c0.155,0.237,0.314,0.481,0.471,0.725
				c-0.138,0.221-0.285,0.444-0.422,0.663C87.129,25.094,86.974,24.851,86.816,24.614z"/>
			<path d="M85.627,24.681c0.16-0.249,0.316-0.493,0.47-0.73c0.143,0.216,0.287,0.432,0.435,0.663
				c-0.16,0.237-0.316,0.482-0.477,0.725C85.912,25.114,85.77,24.896,85.627,24.681z"/>
			<path d="M90.259,26.252c-0.143-0.224-0.286-0.445-0.429-0.662c0.182-0.271,0.348-0.54,0.52-0.809
				c0.147,0.215,0.285,0.438,0.434,0.665C90.608,25.713,90.435,25.983,90.259,26.252z"/>
			<path d="M89.217,24.638c0.17-0.27,0.348-0.538,0.517-0.805c0.153,0.239,0.312,0.476,0.477,0.726
				c-0.18,0.268-0.35,0.538-0.528,0.811C89.525,25.12,89.371,24.877,89.217,24.638z"/>
			<path d="M90.496,24.558c0.159-0.243,0.32-0.487,0.471-0.726c0.143,0.213,0.281,0.436,0.427,0.662
				c-0.158,0.237-0.312,0.482-0.47,0.731C90.783,24.996,90.635,24.775,90.496,24.558z"/>
			<path d="M89.068,26.319c-0.159-0.243-0.317-0.486-0.468-0.729c0.157-0.246,0.309-0.489,0.468-0.732
				c0.16,0.238,0.312,0.481,0.477,0.732C89.387,25.833,89.228,26.077,89.068,26.319z"/>
			<path d="M88.007,24.676c0.158-0.244,0.312-0.488,0.47-0.725c0.148,0.221,0.294,0.455,0.451,0.687
				c-0.161,0.243-0.312,0.488-0.474,0.731C88.303,25.134,88.153,24.903,88.007,24.676z"/>
			<path d="M105.357,31.14c-0.153,0.253-0.312,0.495-0.471,0.738c-0.152-0.243-0.311-0.485-0.469-0.738
				c0.158-0.243,0.317-0.485,0.475-0.726C105.05,30.654,105.204,30.897,105.357,31.14z"/>
			<path d="M99.963,26.64c0.157,0.244,0.319,0.488,0.471,0.731c-0.153,0.243-0.314,0.487-0.471,0.73
				c-0.158-0.243-0.317-0.487-0.475-0.73C99.645,27.128,99.805,26.885,99.963,26.64z"/>
			<path d="M100.926,30.048c-0.17-0.071-0.339-0.116-0.498-0.131c-0.003,0-0.011,0-0.011,0c0.069-0.113,0.138-0.225,0.212-0.334
				C100.729,29.739,100.83,29.895,100.926,30.048z"/>
			<path d="M102.29,30.248c-0.105,0.166-0.212,0.328-0.311,0.485c-0.197-0.161-0.387-0.31-0.578-0.431
				c0.149-0.238,0.307-0.477,0.461-0.72C102.005,29.81,102.148,30.031,102.29,30.248z"/>
			<path d="M99.963,28.552c0.173,0.269,0.35,0.538,0.519,0.807c-0.111,0.18-0.229,0.361-0.338,0.536
				c-0.058,0-0.117-0.005-0.181-0.011c-0.138-0.223-0.286-0.446-0.433-0.669C99.677,28.995,99.816,28.772,99.963,28.552z"/>
			<path d="M102.903,31.205c-0.053,0.092-0.104,0.174-0.169,0.266c-0.184-0.2-0.381-0.394-0.571-0.574
				c0.09-0.138,0.182-0.277,0.275-0.42C102.598,30.72,102.749,30.963,102.903,31.205z"/>
			<path d="M104.131,31.14c-0.172,0.257-0.328,0.508-0.489,0.757c-0.149-0.225-0.295-0.456-0.449-0.692
				c0.164-0.246,0.322-0.502,0.486-0.757C103.835,30.684,103.981,30.915,104.131,31.14z"/>
			<path d="M99.668,29.864c-0.161-0.005-0.341-0.018-0.542-0.03c0.091-0.131,0.181-0.262,0.262-0.397
				C99.481,29.582,99.573,29.726,99.668,29.864z"/>
			<path d="M98.386,29.799c-0.142-0.003-0.294-0.015-0.444-0.02c0.068-0.118,0.139-0.226,0.212-0.341
				C98.232,29.556,98.312,29.679,98.386,29.799z"/>
			<path d="M98.775,28.484c0.151,0.243,0.312,0.488,0.468,0.731c-0.132,0.203-0.263,0.407-0.391,0.605
				c-0.053,0-0.106-0.005-0.169-0.005c-0.128-0.2-0.254-0.397-0.382-0.6C98.462,28.972,98.62,28.726,98.775,28.484z"/>
			<path d="M97.584,28.552c0.147,0.22,0.285,0.443,0.427,0.662c-0.115,0.184-0.238,0.367-0.353,0.544
				c-0.065-0.002-0.128-0.002-0.19-0.006c-0.114-0.171-0.223-0.341-0.33-0.508C97.287,29.012,97.435,28.779,97.584,28.552z"/>
			<path d="M102.925,29.271c-0.17,0.253-0.327,0.508-0.488,0.756c-0.148-0.216-0.286-0.438-0.433-0.667
				c0.163-0.249,0.327-0.499,0.485-0.751C102.638,28.826,102.779,29.048,102.925,29.271z"/>
			<path d="M101.878,27.652c0.158,0.243,0.316,0.485,0.47,0.731c-0.162,0.251-0.323,0.5-0.486,0.756
				c-0.153-0.243-0.312-0.489-0.47-0.731C101.55,28.154,101.72,27.9,101.878,27.652z"/>
			<path d="M101.72,29.359c-0.161,0.249-0.319,0.492-0.478,0.738c-0.151-0.246-0.311-0.489-0.463-0.738
				c0.153-0.243,0.312-0.489,0.463-0.731C101.401,28.871,101.559,29.117,101.72,29.359z"/>
			<path d="M101.106,28.408c-0.161,0.243-0.319,0.489-0.477,0.731c-0.175-0.269-0.348-0.541-0.524-0.813
				c0.16-0.247,0.312-0.487,0.472-0.731C100.756,27.865,100.926,28.138,101.106,28.408z"/>
			<path d="M103.538,30.228c-0.165,0.256-0.328,0.505-0.489,0.757c-0.155-0.246-0.316-0.489-0.475-0.738
				c0.164-0.248,0.328-0.502,0.493-0.751C103.226,29.739,103.378,29.985,103.538,30.228z"/>
			<path d="M104.109,33.078c-0.004,0.016-0.016,0.031-0.022,0.043c-0.152-0.203-0.328-0.436-0.518-0.672
				c0.027-0.031,0.047-0.07,0.074-0.1C103.803,32.597,103.959,32.84,104.109,33.078z"/>
			<path d="M103.494,32.12c-0.025,0.046-0.052,0.085-0.081,0.131c-0.159-0.198-0.332-0.4-0.51-0.597
				c0.054-0.076,0.097-0.144,0.147-0.226C103.199,31.664,103.348,31.891,103.494,32.12z"/>
			<path d="M105.462,33.212c0.161,0.251,0.316,0.497,0.471,0.735c-0.01,0.02-0.025,0.036-0.032,0.051l-0.886,0.038
				c-0.019-0.02-0.027-0.044-0.039-0.062C105.134,33.722,105.292,33.468,105.462,33.212z"/>
			<path d="M104.683,33.973c-0.003,0-0.003,0.005-0.003,0.005c-0.074-0.107-0.228-0.34-0.444-0.648
				c0.011-0.008,0.011-0.02,0.02-0.026C104.406,33.527,104.543,33.753,104.683,33.973z"/>
			<path d="M87.243,23.506c-0.079-0.128-0.164-0.25-0.238-0.369l0.446,0.052C87.375,23.294,87.315,23.401,87.243,23.506z"/>
			<path d="M102.638,26.473c0.142-0.221,0.288-0.441,0.43-0.661c0.152,0.24,0.31,0.485,0.47,0.728
				c-0.144,0.222-0.284,0.444-0.428,0.667C102.949,26.965,102.799,26.716,102.638,26.473z"/>
			<path d="M105.647,31.14c0.142-0.218,0.286-0.441,0.428-0.662c0.15,0.221,0.289,0.444,0.435,0.662
				c-0.146,0.223-0.29,0.446-0.435,0.671C105.939,31.591,105.789,31.373,105.647,31.14z"/>
			<path d="M105.029,30.184c0.148-0.218,0.284-0.444,0.433-0.661c0.161,0.243,0.316,0.489,0.471,0.731
				c-0.144,0.223-0.286,0.444-0.428,0.667C105.346,30.677,105.195,30.435,105.029,30.184z"/>
			<path d="M84.893,25.369c-0.161-0.243-0.319-0.489-0.478-0.726c0.155-0.235,0.301-0.466,0.448-0.693
				c0.154,0.237,0.315,0.481,0.477,0.725C85.187,24.907,85.04,25.139,84.893,25.369z"/>
			<path d="M104.301,29.048c-0.161-0.243-0.32-0.489-0.477-0.728c0.147-0.223,0.285-0.449,0.432-0.667
				c0.161,0.243,0.313,0.485,0.473,0.731C104.584,28.605,104.44,28.826,104.301,29.048z"/>
			<path d="M103.254,27.429c0.146-0.221,0.284-0.445,0.432-0.667c0.138,0.221,0.285,0.445,0.424,0.667
				c-0.138,0.223-0.285,0.439-0.424,0.661C103.538,27.869,103.399,27.652,103.254,27.429z"/>
			<path d="M86.531,26.514c-0.148,0.231-0.297,0.462-0.444,0.694c-0.161-0.243-0.317-0.492-0.477-0.729
				c0.147-0.233,0.298-0.461,0.444-0.693C86.214,26.028,86.371,26.271,86.531,26.514z"/>
			<path d="M83.822,23.734c0.154-0.233,0.301-0.464,0.451-0.694c0.147,0.224,0.297,0.449,0.448,0.688
				c-0.147,0.229-0.294,0.46-0.448,0.687C84.119,24.184,83.971,23.956,83.822,23.734z"/>
			<path d="M104.401,27.429c0.157-0.242,0.317-0.485,0.468-0.729c0.16,0.244,0.319,0.487,0.477,0.729
				c-0.158,0.243-0.317,0.487-0.477,0.729C104.714,27.916,104.558,27.672,104.401,27.429z"/>
			<path d="M106.075,32.251c0.161,0.253,0.319,0.497,0.478,0.735c-0.166,0.249-0.317,0.494-0.478,0.736
				c-0.152-0.238-0.305-0.48-0.475-0.736C105.759,32.747,105.917,32.504,106.075,32.251z"/>
			<path d="M83.658,25.369c-0.153-0.235-0.299-0.462-0.448-0.685c0.158-0.243,0.316-0.49,0.477-0.727
				c0.143,0.221,0.29,0.449,0.443,0.681C83.971,24.881,83.814,25.126,83.658,25.369z"/>
			<path d="M85.468,26.701c0.154,0.244,0.312,0.487,0.471,0.729c-0.159,0.243-0.317,0.492-0.471,0.729
				c-0.158-0.243-0.312-0.487-0.471-0.729C85.155,27.187,85.31,26.945,85.468,26.701z"/>
			<path d="M84.103,22.777c0.011,0.015,0.016,0.024,0.027,0.042c-0.147,0.227-0.297,0.458-0.45,0.694
				c-0.147-0.23-0.29-0.451-0.429-0.662c0.031-0.058,0.075-0.111,0.108-0.169c0.167,0.006,0.348,0.026,0.548,0.073L84.103,22.777z"
				/>
			<path d="M85.325,28.389c-0.143,0.22-0.285,0.443-0.427,0.659c-0.159-0.243-0.314-0.489-0.471-0.728
				c0.139-0.223,0.285-0.449,0.421-0.667C85.009,27.895,85.168,28.138,85.325,28.389z"/>
			<path d="M86.531,28.346c-0.16,0.243-0.316,0.485-0.472,0.731c-0.151-0.233-0.301-0.462-0.448-0.689
				c0.16-0.243,0.316-0.489,0.477-0.736C86.234,27.885,86.383,28.113,86.531,28.346z"/>
			<path d="M82.639,23.795c0.158-0.237,0.318-0.486,0.465-0.723c0.14,0.211,0.286,0.429,0.433,0.656
				c-0.158,0.243-0.312,0.492-0.471,0.73C82.924,24.237,82.776,24.014,82.639,23.795z"/>
			<path d="M84.708,27.429c-0.143,0.223-0.288,0.441-0.43,0.667c-0.144-0.226-0.286-0.444-0.429-0.667
				c0.143-0.221,0.285-0.44,0.429-0.659C84.42,26.984,84.565,27.208,84.708,27.429z"/>
			<path d="M83.516,25.596c-0.142,0.216-0.286,0.436-0.427,0.661c-0.153-0.235-0.303-0.468-0.449-0.688
				c0.146-0.225,0.285-0.444,0.434-0.663C83.213,25.127,83.363,25.358,83.516,25.596z"/>
			<path d="M84.13,26.541c-0.138,0.222-0.285,0.444-0.423,0.667c-0.159-0.243-0.317-0.492-0.477-0.729
				c0.144-0.221,0.286-0.447,0.428-0.663C83.814,26.053,83.971,26.297,84.13,26.541z"/>
			<path d="M104.44,29.271c0.143-0.223,0.289-0.444,0.429-0.662c0.149,0.228,0.297,0.462,0.444,0.689
				c-0.137,0.223-0.284,0.443-0.428,0.669C104.745,29.733,104.595,29.503,104.44,29.271z"/>
			<path d="M95.785,27.151c-0.157-0.244-0.316-0.493-0.471-0.73c0.15-0.233,0.302-0.462,0.452-0.694
				c0.151,0.243,0.305,0.487,0.463,0.731C96.081,26.69,95.932,26.914,95.785,27.151z"/>
			<path d="M94.554,27.151c-0.145-0.224-0.288-0.445-0.428-0.669c0.155-0.244,0.316-0.486,0.468-0.723
				c0.144,0.217,0.285,0.438,0.427,0.662C94.864,26.663,94.706,26.907,94.554,27.151z"/>
			<path d="M94.739,25.538c0.148-0.234,0.299-0.466,0.449-0.693c0.143,0.215,0.281,0.438,0.428,0.661
				c-0.147,0.227-0.297,0.458-0.443,0.691C95.022,25.976,94.88,25.753,94.739,25.538z"/>
			<path d="M95.901,25.506c0.161-0.243,0.317-0.486,0.478-0.731c0.151,0.244,0.311,0.488,0.47,0.731
				c-0.154,0.241-0.312,0.484-0.47,0.727C96.218,25.99,96.061,25.747,95.901,25.506z"/>
			<path d="M92.307,25.446c0.135-0.22,0.284-0.443,0.421-0.665c0.162,0.247,0.327,0.496,0.489,0.757
				c-0.139,0.215-0.289,0.438-0.426,0.659C92.624,25.944,92.463,25.69,92.307,25.446z"/>
			<path d="M91.687,24.494c0.144-0.224,0.29-0.442,0.428-0.662c0.155,0.239,0.309,0.476,0.471,0.726
				c-0.143,0.223-0.279,0.438-0.427,0.661C91.997,24.976,91.842,24.731,91.687,24.494z"/>
			<path d="M96.971,27.151c-0.15-0.237-0.304-0.462-0.451-0.693c0.158-0.244,0.317-0.489,0.47-0.731
				c0.148,0.231,0.297,0.461,0.448,0.694C97.283,26.663,97.129,26.907,96.971,27.151z"/>
			<path d="M93.405,27.151c-0.157-0.244-0.317-0.493-0.469-0.73c0.143-0.224,0.283-0.445,0.427-0.662
				c0.158,0.237,0.317,0.48,0.471,0.723C93.691,26.706,93.549,26.927,93.405,27.151z"/>
			<path d="M93.511,25.538c0.154-0.249,0.312-0.492,0.467-0.736c0.158,0.244,0.316,0.487,0.477,0.736
				c-0.161,0.237-0.319,0.48-0.477,0.721C93.816,26.018,93.661,25.775,93.511,25.538z"/>
			<path d="M98.301,25.532c0.161-0.244,0.319-0.486,0.474-0.731c0.151,0.244,0.312,0.487,0.468,0.736
				c-0.151,0.237-0.312,0.48-0.468,0.721C98.62,26.018,98.462,25.775,98.301,25.532z"/>
			<path d="M99.535,25.538c0.164-0.261,0.321-0.51,0.486-0.757c0.144,0.222,0.28,0.438,0.427,0.665
				c-0.157,0.243-0.321,0.498-0.485,0.751C99.82,25.976,99.677,25.753,99.535,25.538z"/>
			<path d="M97.138,25.506c0.144-0.223,0.286-0.446,0.423-0.661c0.149,0.227,0.303,0.458,0.455,0.693
				c-0.147,0.215-0.286,0.438-0.433,0.659C97.435,25.964,97.287,25.733,97.138,25.506z"/>
			<path d="M100.105,26.421c0.162-0.255,0.329-0.508,0.488-0.751c0.156,0.237,0.312,0.482,0.469,0.725
				c-0.157,0.252-0.317,0.501-0.484,0.757C100.417,26.907,100.265,26.663,100.105,26.421z"/>
			<path d="M101.354,26.395c0.158-0.243,0.317-0.488,0.47-0.725c0.176,0.262,0.351,0.531,0.524,0.803
				c-0.153,0.243-0.312,0.485-0.47,0.735C101.703,26.933,101.528,26.663,101.354,26.395z"/>
			<path d="M101.242,28.182c-0.167-0.27-0.347-0.541-0.517-0.81c0.159-0.254,0.321-0.501,0.487-0.752
				c0.169,0.271,0.348,0.539,0.524,0.809C101.571,27.677,101.407,27.933,101.242,28.182z"/>
			<path d="M98.197,27.151c-0.161-0.244-0.312-0.488-0.466-0.73c0.139-0.224,0.286-0.445,0.425-0.662
				c0.157,0.237,0.316,0.48,0.474,0.723C98.487,26.706,98.344,26.927,98.197,27.151z"/>
			<path d="M99.349,27.151c-0.147-0.224-0.292-0.445-0.434-0.669c0.161-0.244,0.319-0.486,0.478-0.723
				c0.137,0.217,0.284,0.438,0.423,0.662C99.661,26.663,99.504,26.907,99.349,27.151z"/>
			<path d="M102.49,28.159c-0.153-0.243-0.312-0.487-0.466-0.729c0.154-0.242,0.312-0.485,0.466-0.729
				c0.158,0.244,0.316,0.487,0.476,0.729C102.807,27.672,102.648,27.916,102.49,28.159z"/>
			<path d="M89.068,26.763c0.145,0.221,0.285,0.445,0.434,0.667c-0.149,0.223-0.285,0.441-0.434,0.667
				c-0.137-0.228-0.286-0.444-0.422-0.667C88.782,27.208,88.931,26.984,89.068,26.763z"/>
			<path d="M92.791,26.64c0.16,0.244,0.311,0.488,0.472,0.731c-0.161,0.243-0.313,0.493-0.472,0.73
				c-0.156-0.243-0.317-0.487-0.475-0.73C92.474,27.128,92.635,26.885,92.791,26.64z"/>
			<path d="M96.229,28.287c-0.152,0.241-0.313,0.485-0.463,0.73c-0.15-0.228-0.302-0.458-0.452-0.69
				c0.155-0.243,0.314-0.487,0.471-0.731C95.932,27.828,96.081,28.052,96.229,28.287z"/>
			<path d="M97.438,28.326c-0.152,0.233-0.3,0.462-0.448,0.69c-0.157-0.244-0.312-0.489-0.47-0.73
				c0.155-0.234,0.301-0.459,0.451-0.692C97.129,27.839,97.283,28.079,97.438,28.326z"/>
			<path d="M97.584,26.64c0.159,0.244,0.316,0.488,0.475,0.731c-0.158,0.243-0.316,0.487-0.475,0.73
				c-0.159-0.243-0.316-0.487-0.472-0.73C97.268,27.128,97.425,26.885,97.584,26.64z"/>
			<path d="M96.378,26.678c0.147,0.235,0.297,0.46,0.443,0.694c-0.146,0.233-0.296,0.459-0.443,0.692
				c-0.15-0.233-0.298-0.459-0.447-0.692C96.081,27.138,96.229,26.913,96.378,26.678z"/>
			<path d="M95.172,26.64c0.154,0.244,0.312,0.488,0.47,0.731c-0.158,0.243-0.312,0.487-0.47,0.73
				c-0.158-0.243-0.317-0.487-0.477-0.73C94.854,27.128,95.013,26.885,95.172,26.64z"/>
			<path d="M93.839,28.261c-0.158,0.243-0.317,0.485-0.476,0.731c-0.138-0.22-0.285-0.446-0.427-0.666
				c0.158-0.243,0.312-0.485,0.469-0.731C93.549,27.815,93.691,28.038,93.839,28.261z"/>
			<path d="M93.977,26.709c0.149,0.218,0.285,0.442,0.432,0.662c-0.147,0.223-0.283,0.443-0.429,0.666
				c-0.142-0.223-0.289-0.443-0.427-0.666C93.691,27.151,93.839,26.927,93.977,26.709z"/>
			<path d="M95.022,28.326c-0.142,0.226-0.283,0.446-0.422,0.666c-0.158-0.246-0.319-0.489-0.474-0.731
				c0.14-0.223,0.283-0.446,0.428-0.666C94.706,27.839,94.864,28.079,95.022,28.326z"/>
			<path d="M98.629,28.261c-0.158,0.243-0.316,0.485-0.474,0.731c-0.139-0.22-0.286-0.439-0.425-0.666
				c0.155-0.247,0.312-0.487,0.466-0.731C98.344,27.815,98.483,28.038,98.629,28.261z"/>
			<path d="M101.824,25.219c-0.014-0.026-0.031-0.053-0.054-0.08c0.034,0.012,0.065,0.018,0.097,0.026
				C101.851,25.181,101.834,25.204,101.824,25.219z"/>
			<path d="M85.912,25.564c-0.148,0.225-0.297,0.458-0.451,0.694c-0.14-0.229-0.283-0.445-0.421-0.661
				c0.148-0.233,0.297-0.469,0.444-0.694C85.622,25.12,85.77,25.339,85.912,25.564z"/>
			<path d="M103.686,26.319c-0.148-0.223-0.292-0.444-0.432-0.665c0.22,0.093,0.443,0.199,0.656,0.316
				C103.835,26.088,103.759,26.201,103.686,26.319z"/>
			<path d="M101.682,25.446c-0.154,0.238-0.312,0.48-0.471,0.726c-0.159-0.245-0.316-0.488-0.477-0.726
				c0.106-0.169,0.211-0.326,0.318-0.486c0.123,0.028,0.243,0.06,0.37,0.09C101.511,25.181,101.596,25.309,101.682,25.446z"/>
			<path d="M106.688,32.766c-0.147-0.239-0.306-0.482-0.463-0.738c0.139-0.218,0.284-0.438,0.422-0.666
				c0.073,0.108,0.138,0.215,0.207,0.32c0.052,0.208,0.1,0.412,0.147,0.602C106.9,32.448,106.796,32.609,106.688,32.766z"/>
			<path d="M106.075,30.031c-0.152-0.243-0.312-0.485-0.467-0.735c0.131-0.2,0.255-0.4,0.394-0.607
				c0.104,0.312,0.205,0.643,0.305,0.982C106.236,29.795,106.155,29.91,106.075,30.031z"/>
			<path d="M106.647,30.922c-0.138-0.223-0.28-0.444-0.422-0.667c0.05-0.09,0.115-0.184,0.173-0.277
				c0.09,0.313,0.174,0.625,0.259,0.933C106.653,30.915,106.653,30.915,106.647,30.922z"/>
			<path d="M104.256,27.208c-0.147-0.224-0.285-0.445-0.432-0.667c0.099-0.152,0.2-0.302,0.296-0.45
				c0.212,0.124,0.412,0.261,0.594,0.41C104.558,26.74,104.406,26.971,104.256,27.208z"/>
			<path d="M105.462,29.077c-0.148-0.233-0.296-0.462-0.444-0.694c0.158-0.246,0.316-0.489,0.471-0.731
				c0.1,0.162,0.205,0.325,0.313,0.485c0.03,0.084,0.061,0.171,0.095,0.259C105.755,28.626,105.611,28.844,105.462,29.077z"/>
			<path d="M102.925,25.59c-0.146,0.216-0.288,0.438-0.435,0.662c-0.17-0.269-0.349-0.539-0.518-0.806
				c0.044-0.073,0.084-0.142,0.133-0.212c0.248,0.079,0.502,0.167,0.756,0.261C102.88,25.527,102.903,25.558,102.925,25.59z"/>
			<path d="M87.884,26.701c0.154,0.239,0.313,0.487,0.465,0.729c-0.152,0.243-0.311,0.487-0.465,0.729
				c-0.158-0.243-0.316-0.487-0.475-0.729C87.568,27.187,87.726,26.945,87.884,26.701z"/>
			<path d="M88.928,28.319c-0.161,0.239-0.312,0.485-0.474,0.728c-0.143-0.221-0.284-0.443-0.427-0.664
				c0.153-0.246,0.312-0.489,0.471-0.731C88.639,27.87,88.782,28.097,88.928,28.319z"/>
			<path d="M86.816,26.514c0.158-0.243,0.316-0.486,0.477-0.729c0.147,0.227,0.297,0.46,0.444,0.693
				c-0.16,0.243-0.318,0.486-0.473,0.729C87.112,26.977,86.963,26.741,86.816,26.514z"/>
			<path d="M88.022,26.479c0.148-0.221,0.289-0.447,0.432-0.666c0.155,0.24,0.313,0.485,0.474,0.728
				c-0.146,0.222-0.289,0.444-0.43,0.667C88.339,26.959,88.18,26.716,88.022,26.479z"/>
			<path d="M100.598,25.219c-0.096-0.137-0.181-0.275-0.27-0.406c0.143,0.026,0.301,0.058,0.47,0.089
				C100.734,25.008,100.66,25.114,100.598,25.219z"/>
			<path d="M83.803,25.596c0.158-0.252,0.316-0.494,0.475-0.738c0.148,0.238,0.306,0.486,0.465,0.732
				c-0.154,0.243-0.308,0.486-0.465,0.729C84.119,26.077,83.961,25.833,83.803,25.596z"/>
			<path d="M85.325,26.479c-0.157,0.243-0.316,0.486-0.478,0.729c-0.139-0.224-0.282-0.445-0.427-0.667
				c0.161-0.243,0.312-0.488,0.473-0.725C85.033,26.032,85.178,26.258,85.325,26.479z"/>
			<path d="M90.116,28.383c-0.143,0.221-0.286,0.443-0.429,0.664c-0.158-0.243-0.311-0.489-0.47-0.728
				c0.135-0.223,0.285-0.449,0.428-0.667C89.799,27.895,89.957,28.138,90.116,28.383z"/>
			<path d="M86.674,26.74c0.147,0.226,0.3,0.457,0.45,0.69c-0.15,0.234-0.303,0.461-0.445,0.694
				c-0.155-0.233-0.301-0.466-0.449-0.694C86.378,27.202,86.523,26.971,86.674,26.74z"/>
			<path d="M87.737,28.383c-0.147,0.231-0.297,0.461-0.444,0.694c-0.161-0.246-0.32-0.489-0.477-0.731
				c0.147-0.233,0.296-0.461,0.448-0.694C87.419,27.895,87.577,28.138,87.737,28.383z"/>
			<path d="M99.771,24.716c-0.125,0.197-0.252,0.392-0.378,0.594c-0.155-0.233-0.307-0.464-0.456-0.695l0.401,0.049
				C99.338,24.663,99.504,24.681,99.771,24.716z"/>
			<path d="M91.545,26.62c0.158,0.251,0.321,0.498,0.486,0.752c-0.175,0.269-0.35,0.544-0.517,0.81
				c-0.169-0.249-0.33-0.505-0.493-0.753C91.195,27.159,91.368,26.891,91.545,26.62z"/>
			<path d="M91.364,28.408c-0.158,0.243-0.316,0.489-0.476,0.731c-0.159-0.256-0.317-0.505-0.485-0.756
				c0.157-0.246,0.317-0.489,0.475-0.731C91.036,27.9,91.199,28.154,91.364,28.408z"/>
			<path d="M92.643,28.326c-0.169,0.272-0.348,0.545-0.516,0.813c-0.161-0.243-0.316-0.489-0.478-0.731
				c0.182-0.271,0.349-0.543,0.524-0.813C92.332,27.839,92.486,28.079,92.643,28.326z"/>
			<path d="M91.687,26.396c0.158-0.244,0.311-0.49,0.472-0.726c0.158,0.243,0.327,0.496,0.484,0.751
				c-0.157,0.243-0.311,0.486-0.47,0.73C92.011,26.896,91.85,26.646,91.687,26.396z"/>
			<path d="M90.403,26.479c0.178-0.278,0.349-0.547,0.522-0.809c0.153,0.237,0.312,0.482,0.47,0.726
				c-0.167,0.267-0.347,0.537-0.517,0.812C90.72,26.959,90.559,26.716,90.403,26.479z"/>
			<path d="M90.259,26.701c0.153,0.239,0.312,0.487,0.47,0.729c-0.158,0.243-0.31,0.487-0.462,0.729
				c-0.159-0.243-0.319-0.487-0.478-0.729C89.947,27.187,90.107,26.945,90.259,26.701z"/>
			<path d="M89.217,26.541c0.159-0.243,0.312-0.488,0.47-0.728c0.143,0.22,0.282,0.439,0.429,0.666
				c-0.159,0.243-0.316,0.486-0.475,0.729C89.502,26.984,89.353,26.763,89.217,26.541z"/>
			<path style="opacity:0.5;fill:#949494;" d="M105.901,33.998l0.343-0.015c-0.009-0.01-0.02-0.026-0.025-0.036
				c0.152-0.243,0.313-0.487,0.469-0.735c0.166,0.248,0.318,0.492,0.473,0.728l0.216-0.003c0,0-0.011-0.059-0.032-0.157
				c-0.17-0.259-0.332-0.518-0.508-0.794c0.081-0.12,0.158-0.246,0.243-0.375c-0.027-0.103-0.052-0.208-0.08-0.326
				c-0.101,0.164-0.205,0.325-0.312,0.482c-0.147-0.239-0.306-0.482-0.463-0.738c0.139-0.218,0.284-0.438,0.422-0.666
				c0.073,0.108,0.138,0.215,0.207,0.32c-0.065-0.249-0.134-0.51-0.197-0.772c-0.004,0.005-0.004,0.005-0.01,0.011
				c-0.138-0.223-0.28-0.444-0.422-0.667c0.05-0.09,0.115-0.184,0.173-0.277c-0.026-0.097-0.058-0.205-0.091-0.305
				c-0.071,0.123-0.152,0.238-0.232,0.359c-0.152-0.243-0.312-0.485-0.467-0.735c0.131-0.2,0.255-0.4,0.394-0.607
				c-0.038-0.095-0.069-0.197-0.105-0.293c-0.143,0.23-0.286,0.448-0.435,0.681c-0.148-0.233-0.296-0.462-0.444-0.694
				c0.158-0.246,0.316-0.489,0.471-0.731c0.1,0.162,0.205,0.325,0.313,0.485c-0.085-0.226-0.17-0.438-0.255-0.616
				c-0.181-0.393-0.476-0.726-0.834-1.021c-0.156,0.24-0.307,0.471-0.458,0.708c-0.147-0.224-0.285-0.445-0.432-0.667
				c0.099-0.152,0.2-0.302,0.296-0.45c-0.069-0.04-0.139-0.084-0.211-0.121c-0.075,0.118-0.15,0.231-0.224,0.349
				c-0.148-0.223-0.292-0.444-0.432-0.665c-0.127-0.058-0.266-0.114-0.393-0.16c0.02,0.032,0.042,0.064,0.065,0.096
				c-0.146,0.216-0.288,0.438-0.435,0.662c-0.17-0.269-0.349-0.539-0.518-0.806c0.044-0.073,0.084-0.142,0.133-0.212
				c-0.08-0.021-0.164-0.047-0.239-0.068c-0.016,0.016-0.032,0.038-0.043,0.053c-0.014-0.026-0.031-0.053-0.054-0.08
				c-0.115-0.032-0.231-0.063-0.347-0.089c0.089,0.131,0.174,0.259,0.259,0.396c-0.154,0.238-0.312,0.48-0.471,0.726
				c-0.159-0.245-0.316-0.488-0.477-0.726c0.106-0.169,0.211-0.326,0.318-0.486c-0.084-0.021-0.169-0.038-0.253-0.058
				c-0.065,0.106-0.139,0.212-0.201,0.317c-0.096-0.137-0.181-0.275-0.27-0.406c-0.216-0.043-0.404-0.068-0.558-0.097
				c-0.125,0.197-0.252,0.392-0.378,0.594c-0.155-0.233-0.307-0.464-0.456-0.695l-0.317-0.038c0.009,0,0.009,0.002,0.009,0.002
				c-0.158,0.243-0.316,0.489-0.474,0.731c-0.15-0.233-0.297-0.458-0.444-0.69c0.032-0.05,0.062-0.099,0.093-0.145l-0.521-0.069
				c0.048,0.073,0.089,0.14,0.142,0.214c-0.148,0.22-0.286,0.44-0.435,0.663c-0.157-0.243-0.315-0.492-0.47-0.731
				c0.047-0.073,0.093-0.146,0.142-0.219l-0.265-0.034c-0.008,0.009-0.016,0.02-0.019,0.034c-0.011-0.014-0.022-0.03-0.022-0.038
				l-0.317-0.044c0.062,0.102,0.126,0.201,0.189,0.3c-0.152,0.243-0.306,0.489-0.463,0.731c-0.15-0.223-0.293-0.443-0.435-0.663
				c0.095-0.141,0.18-0.279,0.274-0.421l-0.269-0.032c-0.047,0.08-0.098,0.152-0.147,0.233c-0.058-0.097-0.121-0.186-0.174-0.275
				l-0.319-0.038c0.116,0.175,0.234,0.353,0.351,0.532c-0.148,0.231-0.297,0.462-0.451,0.69c-0.158-0.243-0.317-0.489-0.468-0.726
				c0.108-0.178,0.22-0.352,0.337-0.527l-0.267-0.03c-0.071,0.108-0.147,0.221-0.22,0.33c-0.084-0.131-0.17-0.257-0.255-0.39
				l-0.312-0.039c0.138,0.212,0.28,0.43,0.424,0.657c-0.154,0.237-0.313,0.483-0.471,0.726c-0.165-0.253-0.328-0.502-0.488-0.751
				c0.139-0.218,0.28-0.433,0.419-0.646l-0.27-0.03c-0.096,0.152-0.189,0.302-0.296,0.455c-0.116-0.18-0.232-0.361-0.351-0.536
				l-0.497-0.061c-0.109,0.181-0.22,0.355-0.336,0.531c-0.139-0.208-0.277-0.421-0.413-0.627l-0.307-0.038v0.007
				c-0.158,0.237-0.319,0.481-0.475,0.724c-0.16-0.243-0.318-0.487-0.466-0.724c0.021-0.038,0.042-0.075,0.063-0.112l-0.467-0.057
				c0.038,0.057,0.076,0.109,0.107,0.169c-0.17,0.263-0.343,0.532-0.519,0.802c-0.148-0.231-0.301-0.464-0.443-0.687
				c0.075-0.122,0.152-0.244,0.233-0.365l-0.273-0.03c-0.034,0.056-0.07,0.113-0.108,0.174c-0.043-0.074-0.084-0.138-0.134-0.205
				l-0.31-0.038c0.093,0.151,0.201,0.306,0.295,0.464c-0.155,0.239-0.307,0.481-0.466,0.725c-0.157-0.243-0.318-0.486-0.476-0.725
				c0.111-0.17,0.223-0.34,0.328-0.501l-0.263-0.038c-0.076,0.105-0.137,0.212-0.208,0.317c-0.079-0.128-0.164-0.25-0.238-0.369
				L86.689,23.1c0.139,0.202,0.274,0.412,0.412,0.628c-0.142,0.216-0.285,0.439-0.428,0.661c-0.143-0.225-0.29-0.444-0.427-0.661
				c0.137-0.216,0.273-0.426,0.405-0.635l-0.268-0.036c-0.096,0.15-0.191,0.295-0.287,0.449c-0.116-0.182-0.225-0.355-0.339-0.525
				L85.24,22.92c-0.123,0.194-0.247,0.389-0.376,0.586c-0.152-0.231-0.298-0.466-0.448-0.688l0,0l-0.312-0.042
				c0.011,0.015,0.016,0.024,0.027,0.042c-0.147,0.227-0.297,0.458-0.45,0.694c-0.147-0.23-0.29-0.451-0.429-0.662
				c0.031-0.058,0.075-0.111,0.108-0.169c-0.181-0.006-0.34,0.006-0.489,0.032c0.032,0.045,0.065,0.087,0.097,0.137
				c-0.159,0.243-0.319,0.482-0.475,0.729c-0.111-0.173-0.224-0.342-0.328-0.507c-0.069,0.068-0.118,0.138-0.161,0.203
				c0.112,0.169,0.227,0.344,0.346,0.52c-0.092,0.149-0.185,0.293-0.281,0.436c0.027,0.102,0.052,0.21,0.074,0.333
				c0.116-0.181,0.232-0.365,0.35-0.545c0.139,0.218,0.285,0.439,0.432,0.662c-0.143,0.221-0.285,0.444-0.424,0.663
				c-0.093-0.141-0.184-0.278-0.274-0.418c0.069,0.299,0.143,0.62,0.221,0.944c0.017-0.026,0.034-0.055,0.053-0.081
				c0.145,0.229,0.292,0.456,0.444,0.689c-0.082,0.126-0.162,0.246-0.243,0.374c0.032,0.106,0.061,0.212,0.084,0.313
				c0.108-0.153,0.203-0.313,0.303-0.466c0.152,0.244,0.312,0.487,0.469,0.729c-0.148,0.238-0.294,0.47-0.445,0.698
				c0.017,0.048,0.038,0.093,0.054,0.138c0.107,0.212,0.207,0.375,0.311,0.498c-0.077-0.13-0.164-0.254-0.248-0.375
				c0.161-0.243,0.318-0.489,0.477-0.736c0.138,0.218,0.285,0.444,0.427,0.667c-0.142,0.222-0.285,0.444-0.427,0.666
				c0.075,0.053,0.147,0.092,0.211,0.118c0.117-0.189,0.243-0.371,0.36-0.562c0.137,0.205,0.265,0.411,0.402,0.625
				c0.117,0.005,0.253,0.01,0.422,0.013c0.117-0.187,0.243-0.377,0.365-0.571c0.132,0.202,0.258,0.403,0.397,0.607
				c0.116,0,0.25,0.013,0.382,0.02c0.146-0.223,0.284-0.446,0.432-0.669c0.149,0.236,0.295,0.472,0.45,0.705
				c0.101,0.005,0.205,0.01,0.317,0.013c0.144-0.225,0.291-0.453,0.438-0.676c0.138,0.218,0.285,0.439,0.427,0.662
				c-0.014,0.021-0.024,0.036-0.037,0.052c0.122,0.005,0.244,0.01,0.371,0.017c-0.015-0.021-0.03-0.048-0.046-0.069
				c0.157-0.243,0.309-0.487,0.468-0.729c0.16,0.243,0.319,0.487,0.477,0.729c-0.02,0.036-0.049,0.069-0.07,0.107
				c0.143,0.007,0.289,0.008,0.439,0.021c-0.031-0.044-0.053-0.085-0.085-0.128c0.148-0.223,0.286-0.444,0.436-0.662
				c0.158,0.252,0.321,0.502,0.485,0.751c-0.016,0.026-0.031,0.048-0.05,0.074c0.134,0.005,0.261,0.012,0.389,0.018
				c-0.012-0.028-0.034-0.059-0.055-0.092c0.159-0.243,0.317-0.489,0.478-0.731c0.152,0.243,0.311,0.489,0.463,0.731
				c-0.02,0.044-0.05,0.085-0.079,0.126c0.152,0.005,0.312,0.018,0.465,0.023c-0.03-0.049-0.062-0.097-0.092-0.149
				c0.173-0.269,0.348-0.538,0.521-0.807c0.145,0.22,0.288,0.443,0.428,0.662c-0.066,0.108-0.136,0.215-0.205,0.325
				c0.096,0.007,0.185,0.007,0.274,0.013c0.032-0.038,0.054-0.075,0.075-0.115c0.032,0.039,0.052,0.082,0.08,0.118
				c0.099,0.01,0.196,0.01,0.302,0.016c-0.085-0.118-0.161-0.239-0.235-0.358c0.154-0.243,0.312-0.489,0.47-0.731
				c0.155,0.243,0.313,0.488,0.474,0.731c-0.088,0.131-0.166,0.249-0.247,0.377c0.097,0.007,0.191,0.01,0.282,0.016
				c0.035-0.056,0.069-0.111,0.111-0.17c0.038,0.059,0.074,0.118,0.117,0.184c0.093,0,0.196,0.006,0.296,0.013
				c-0.096-0.144-0.181-0.28-0.272-0.42c0.145-0.22,0.28-0.443,0.43-0.662c0.147,0.226,0.297,0.459,0.443,0.692
				c-0.082,0.133-0.174,0.271-0.262,0.408c0.095,0.005,0.189,0.005,0.283,0.008c0.044-0.062,0.087-0.131,0.13-0.197
				c0.042,0.07,0.084,0.138,0.132,0.208c0.099,0.007,0.196,0.011,0.3,0.016c-0.1-0.149-0.196-0.297-0.297-0.444
				c0.161-0.249,0.317-0.492,0.478-0.735c0.157,0.243,0.316,0.485,0.47,0.735c-0.101,0.154-0.197,0.308-0.302,0.459
				c0.097,0.006,0.191,0.01,0.28,0.016c0.06-0.085,0.114-0.167,0.164-0.256c0.065,0.092,0.117,0.184,0.182,0.269
				c0.096,0.007,0.2,0.013,0.296,0.02c-0.114-0.171-0.223-0.341-0.33-0.508c0.148-0.233,0.297-0.466,0.445-0.692
				c0.147,0.22,0.285,0.443,0.427,0.662c-0.115,0.184-0.238,0.367-0.353,0.544c0.094,0.007,0.191,0.013,0.285,0.02
				c0.068-0.118,0.139-0.226,0.212-0.341c0.077,0.118,0.157,0.241,0.231,0.361c0.107,0.005,0.201,0.011,0.297,0.017
				c-0.128-0.2-0.254-0.397-0.382-0.6c0.161-0.243,0.319-0.489,0.474-0.731c0.151,0.243,0.312,0.488,0.468,0.731
				c-0.132,0.203-0.263,0.407-0.391,0.605c0.096,0.005,0.189,0.01,0.274,0.015c0.091-0.131,0.181-0.262,0.262-0.397
				c0.093,0.144,0.185,0.288,0.28,0.426c0.102,0.008,0.205,0.016,0.294,0.02c-0.138-0.223-0.286-0.446-0.433-0.669
				c0.147-0.22,0.286-0.443,0.433-0.662c0.173,0.269,0.35,0.538,0.519,0.807c-0.111,0.18-0.229,0.361-0.338,0.536
				c0.104,0.008,0.2,0.015,0.273,0.021c0.069-0.113,0.138-0.225,0.212-0.334c0.1,0.157,0.201,0.313,0.297,0.466
				c0.158,0.062,0.316,0.154,0.475,0.254c0.149-0.238,0.307-0.477,0.461-0.72c0.143,0.228,0.286,0.449,0.429,0.666
				c-0.105,0.166-0.212,0.328-0.311,0.485c0.057,0.058,0.121,0.107,0.184,0.164c0.09-0.138,0.182-0.277,0.275-0.42
				c0.161,0.243,0.312,0.485,0.465,0.728c-0.053,0.092-0.104,0.174-0.169,0.266c0.065,0.062,0.116,0.12,0.169,0.184
				c0.054-0.076,0.097-0.144,0.147-0.226c0.15,0.236,0.298,0.462,0.444,0.692c-0.025,0.046-0.052,0.085-0.081,0.131
				c0.057,0.066,0.11,0.134,0.157,0.197c0.027-0.031,0.047-0.07,0.074-0.1c0.161,0.249,0.316,0.492,0.466,0.729
				c-0.004,0.016-0.016,0.031-0.022,0.043c0.053,0.072,0.099,0.141,0.149,0.21c0.011-0.008,0.011-0.02,0.02-0.026
				c0.15,0.223,0.287,0.449,0.427,0.669c-0.003,0-0.003,0.005-0.003,0.005c0.027,0.039,0.042,0.067,0.042,0.067l0.293-0.01
				c-0.019-0.02-0.027-0.044-0.039-0.062c0.157-0.251,0.316-0.505,0.485-0.761c0.161,0.251,0.316,0.497,0.471,0.735
				C105.924,33.966,105.908,33.983,105.901,33.998z M105.462,32.766c-0.143-0.216-0.285-0.438-0.433-0.669
				c0.159-0.243,0.317-0.482,0.476-0.734c0.142,0.228,0.284,0.453,0.428,0.666C105.775,32.278,105.616,32.523,105.462,32.766z
				 M103.686,28.541c0.154,0.243,0.312,0.487,0.466,0.729c-0.159,0.244-0.312,0.489-0.471,0.734
				c-0.153-0.246-0.312-0.485-0.47-0.734C103.369,29.028,103.527,28.784,103.686,28.541z M103.068,29.048
				c-0.143-0.221-0.289-0.443-0.43-0.664c0.161-0.246,0.312-0.489,0.472-0.731c0.144,0.218,0.284,0.444,0.428,0.667
				C103.378,28.559,103.22,28.805,103.068,29.048z M104.301,29.497c0.147,0.229,0.294,0.459,0.443,0.687
				c-0.161,0.251-0.318,0.493-0.473,0.738c-0.147-0.231-0.296-0.464-0.448-0.693C103.981,29.985,104.14,29.739,104.301,29.497z
				 M104.892,30.413c0.158,0.241,0.312,0.484,0.465,0.726c-0.153,0.253-0.312,0.495-0.471,0.738
				c-0.152-0.243-0.311-0.485-0.469-0.738C104.575,30.897,104.734,30.654,104.892,30.413z M104.401,33.078
				c0.163-0.249,0.321-0.502,0.485-0.756c0.148,0.228,0.291,0.448,0.428,0.664c-0.163,0.261-0.325,0.515-0.485,0.757
				C104.691,33.534,104.543,33.311,104.401,33.078z M103.781,32.127c0.162-0.256,0.328-0.51,0.49-0.764
				c0.161,0.253,0.312,0.492,0.473,0.734c-0.166,0.256-0.328,0.512-0.489,0.758C104.099,32.615,103.944,32.373,103.781,32.127z
				 M103.194,31.205c0.164-0.246,0.322-0.502,0.486-0.757c0.154,0.236,0.301,0.467,0.451,0.692
				c-0.172,0.257-0.328,0.508-0.489,0.757C103.494,31.673,103.348,31.441,103.194,31.205z M102.575,30.248
				c0.164-0.248,0.328-0.502,0.493-0.751c0.158,0.243,0.31,0.489,0.47,0.731c-0.165,0.256-0.328,0.505-0.489,0.757
				C102.894,30.74,102.734,30.497,102.575,30.248z M102.005,29.359c0.163-0.249,0.327-0.499,0.485-0.751
				c0.148,0.218,0.289,0.439,0.435,0.662c-0.17,0.253-0.327,0.508-0.488,0.756C102.29,29.81,102.152,29.589,102.005,29.359z
				 M101.861,29.139c-0.153-0.243-0.312-0.489-0.47-0.731c0.158-0.254,0.328-0.508,0.486-0.756c0.158,0.243,0.316,0.485,0.47,0.731
				C102.185,28.634,102.024,28.884,101.861,29.139z M100.778,29.359c0.153-0.243,0.312-0.489,0.463-0.731
				c0.159,0.243,0.317,0.489,0.478,0.731c-0.161,0.249-0.319,0.492-0.478,0.738C101.091,29.851,100.931,29.608,100.778,29.359z
				 M100.105,28.326c0.16-0.247,0.312-0.487,0.472-0.731c0.178,0.271,0.348,0.543,0.529,0.813c-0.161,0.243-0.319,0.489-0.477,0.731
				C100.455,28.871,100.282,28.598,100.105,28.326z M99.963,28.102c-0.158-0.243-0.317-0.487-0.475-0.73
				c0.157-0.243,0.317-0.487,0.475-0.731c0.157,0.244,0.319,0.488,0.471,0.731C100.282,27.615,100.12,27.859,99.963,28.102z
				 M98.915,28.261c0.142-0.223,0.287-0.446,0.434-0.666c0.155,0.244,0.307,0.484,0.467,0.731c-0.139,0.22-0.286,0.446-0.428,0.666
				C99.234,28.746,99.076,28.503,98.915,28.261z M98.344,27.372c0.143-0.221,0.285-0.444,0.43-0.662
				c0.14,0.218,0.282,0.442,0.427,0.662c-0.145,0.223-0.287,0.443-0.427,0.666C98.629,27.815,98.487,27.595,98.344,27.372z
				 M97.73,28.326c0.155-0.247,0.312-0.487,0.466-0.731c0.147,0.22,0.286,0.443,0.432,0.666c-0.158,0.243-0.316,0.485-0.474,0.731
				C98.016,28.772,97.869,28.552,97.73,28.326z M97.584,28.102c-0.159-0.243-0.316-0.487-0.472-0.73
				c0.157-0.243,0.313-0.487,0.472-0.731c0.159,0.244,0.316,0.488,0.475,0.731C97.9,27.615,97.743,27.859,97.584,28.102z
				 M96.52,28.287c0.155-0.234,0.301-0.459,0.451-0.692c0.158,0.244,0.311,0.484,0.467,0.731c-0.152,0.233-0.3,0.462-0.448,0.69
				C96.833,28.772,96.678,28.528,96.52,28.287z M96.378,28.064c-0.15-0.233-0.298-0.459-0.447-0.692
				c0.149-0.234,0.297-0.459,0.447-0.694c0.147,0.235,0.297,0.46,0.443,0.694C96.675,27.605,96.525,27.831,96.378,28.064z
				 M95.314,28.326c0.155-0.243,0.314-0.487,0.471-0.731c0.147,0.233,0.296,0.458,0.444,0.692c-0.152,0.241-0.313,0.485-0.463,0.73
				C95.615,28.788,95.464,28.559,95.314,28.326z M95.172,28.102c-0.158-0.243-0.317-0.487-0.477-0.73
				c0.16-0.243,0.319-0.487,0.477-0.731c0.154,0.244,0.312,0.488,0.47,0.731C95.484,27.615,95.33,27.859,95.172,28.102z
				 M94.126,28.261c0.14-0.223,0.283-0.446,0.428-0.666c0.152,0.244,0.309,0.484,0.467,0.731c-0.142,0.226-0.283,0.446-0.422,0.666
				C94.442,28.746,94.281,28.503,94.126,28.261z M93.98,28.038c-0.142-0.223-0.289-0.443-0.427-0.666
				c0.138-0.221,0.285-0.444,0.424-0.662c0.149,0.218,0.285,0.442,0.432,0.662C94.262,27.595,94.126,27.815,93.98,28.038z
				 M92.936,28.326c0.158-0.243,0.312-0.485,0.469-0.731c0.144,0.22,0.286,0.443,0.434,0.666c-0.158,0.243-0.317,0.485-0.476,0.731
				C93.226,28.772,93.079,28.546,92.936,28.326z M92.791,28.102c-0.156-0.243-0.317-0.487-0.475-0.73
				c0.157-0.243,0.319-0.487,0.475-0.731c0.16,0.244,0.311,0.488,0.472,0.731C93.102,27.615,92.951,27.865,92.791,28.102z
				 M92.173,27.151c-0.162-0.256-0.323-0.505-0.486-0.755c0.158-0.244,0.311-0.49,0.472-0.726c0.158,0.243,0.327,0.496,0.484,0.751
				C92.486,26.663,92.332,26.907,92.173,27.151z M91.649,28.408c0.182-0.271,0.349-0.543,0.524-0.813
				c0.159,0.244,0.313,0.484,0.47,0.731c-0.169,0.272-0.348,0.545-0.516,0.813C91.966,28.897,91.811,28.651,91.649,28.408z
				 M91.514,28.182c-0.169-0.249-0.33-0.505-0.493-0.753c0.174-0.271,0.347-0.539,0.524-0.809c0.158,0.251,0.321,0.498,0.486,0.752
				C91.856,27.641,91.681,27.916,91.514,28.182z M90.878,27.208c-0.158-0.249-0.318-0.492-0.475-0.729
				c0.178-0.278,0.349-0.547,0.522-0.809c0.153,0.237,0.312,0.482,0.47,0.726C91.228,26.663,91.048,26.933,90.878,27.208z
				 M90.403,28.383c0.157-0.246,0.317-0.489,0.475-0.731c0.158,0.247,0.321,0.502,0.486,0.756c-0.158,0.243-0.316,0.489-0.476,0.731
				C90.728,28.884,90.57,28.634,90.403,28.383z M90.266,28.159c-0.159-0.243-0.319-0.487-0.478-0.729
				c0.159-0.242,0.319-0.485,0.471-0.729c0.153,0.239,0.312,0.487,0.47,0.729C90.57,27.672,90.418,27.916,90.266,28.159z
				 M89.641,27.208c-0.139-0.224-0.288-0.445-0.424-0.667c0.159-0.243,0.312-0.488,0.47-0.728c0.143,0.22,0.282,0.439,0.429,0.666
				C89.957,26.722,89.799,26.965,89.641,27.208z M89.217,28.319c0.135-0.223,0.285-0.449,0.428-0.667
				c0.154,0.243,0.312,0.485,0.47,0.731c-0.143,0.221-0.286,0.443-0.429,0.664C89.529,28.805,89.376,28.559,89.217,28.319z
				 M89.068,28.097c-0.137-0.228-0.286-0.444-0.422-0.667c0.136-0.221,0.285-0.445,0.422-0.667c0.145,0.221,0.285,0.445,0.434,0.667
				C89.353,27.652,89.217,27.87,89.068,28.097z M88.498,27.208c-0.158-0.249-0.317-0.492-0.475-0.729
				c0.148-0.221,0.289-0.447,0.432-0.666c0.155,0.24,0.313,0.485,0.474,0.728C88.782,26.763,88.639,26.984,88.498,27.208z
				 M88.027,28.383c0.153-0.246,0.312-0.489,0.471-0.731c0.142,0.218,0.284,0.444,0.43,0.667c-0.161,0.239-0.312,0.485-0.474,0.728
				C88.312,28.826,88.17,28.605,88.027,28.383z M87.884,28.159c-0.158-0.243-0.316-0.487-0.475-0.729
				c0.159-0.242,0.317-0.485,0.475-0.729c0.154,0.239,0.313,0.487,0.465,0.729C88.197,27.672,88.038,27.916,87.884,28.159z
				 M87.264,27.208c-0.152-0.231-0.301-0.466-0.448-0.694c0.158-0.243,0.316-0.486,0.477-0.729c0.147,0.227,0.297,0.46,0.444,0.693
				C87.577,26.722,87.419,26.965,87.264,27.208z M86.816,28.346c0.147-0.233,0.296-0.461,0.448-0.694
				c0.155,0.243,0.313,0.485,0.473,0.731c-0.147,0.231-0.297,0.461-0.444,0.694C87.133,28.831,86.974,28.588,86.816,28.346z
				 M86.678,28.123c-0.155-0.233-0.301-0.466-0.449-0.694c0.148-0.227,0.294-0.458,0.444-0.69c0.147,0.226,0.3,0.457,0.45,0.69
				C86.974,27.664,86.82,27.89,86.678,28.123z M84.893,25.816c0.14,0.216,0.285,0.442,0.432,0.663
				c-0.157,0.243-0.316,0.486-0.478,0.729c-0.139-0.224-0.282-0.445-0.427-0.667C84.581,26.297,84.732,26.053,84.893,25.816z
				 M84.278,26.319c-0.159-0.243-0.317-0.486-0.475-0.723c0.158-0.252,0.316-0.494,0.475-0.738c0.148,0.238,0.306,0.486,0.465,0.732
				C84.589,25.833,84.435,26.077,84.278,26.319z M85.04,25.596c0.148-0.233,0.297-0.469,0.444-0.694
				c0.139,0.217,0.287,0.436,0.429,0.662c-0.148,0.225-0.297,0.458-0.451,0.694C85.321,26.028,85.178,25.813,85.04,25.596z
				 M86.054,25.786c0.161,0.243,0.317,0.485,0.477,0.729c-0.148,0.231-0.297,0.462-0.444,0.694
				c-0.161-0.243-0.317-0.492-0.477-0.729C85.758,26.246,85.908,26.018,86.054,25.786z M85.61,28.389
				c0.16-0.243,0.316-0.489,0.477-0.736c0.147,0.233,0.296,0.461,0.444,0.694c-0.16,0.243-0.316,0.485-0.472,0.731
				C85.908,28.844,85.758,28.615,85.61,28.389z M85.468,28.159c-0.158-0.243-0.312-0.487-0.471-0.729
				c0.158-0.242,0.313-0.485,0.471-0.729c0.154,0.244,0.312,0.487,0.471,0.729C85.78,27.672,85.622,27.921,85.468,28.159z
				 M84.426,28.319c0.139-0.223,0.285-0.449,0.421-0.667c0.162,0.243,0.321,0.485,0.478,0.736c-0.143,0.22-0.285,0.443-0.427,0.659
				C84.739,28.805,84.584,28.559,84.426,28.319z M83.849,27.429c0.143-0.221,0.285-0.44,0.429-0.659
				c0.142,0.214,0.287,0.438,0.43,0.659c-0.143,0.223-0.288,0.441-0.43,0.667C84.134,27.87,83.992,27.652,83.849,27.429z
				 M83.229,26.479c0.144-0.221,0.286-0.447,0.428-0.663c0.157,0.237,0.314,0.481,0.472,0.725c-0.138,0.222-0.285,0.444-0.423,0.667
				C83.548,26.965,83.39,26.716,83.229,26.479z M83.073,24.907c0.14,0.221,0.29,0.451,0.443,0.69
				c-0.142,0.216-0.286,0.436-0.427,0.661c-0.153-0.235-0.303-0.468-0.449-0.688C82.785,25.344,82.924,25.126,83.073,24.907z
				 M83.537,23.728c-0.158,0.243-0.312,0.492-0.471,0.73c-0.143-0.221-0.29-0.444-0.427-0.663c0.158-0.237,0.318-0.486,0.465-0.723
				C83.244,23.283,83.39,23.501,83.537,23.728z M83.687,23.956c0.143,0.221,0.29,0.449,0.443,0.681
				c-0.158,0.243-0.316,0.488-0.472,0.731c-0.153-0.235-0.299-0.462-0.448-0.685C83.368,24.441,83.526,24.193,83.687,23.956z
				 M84.721,23.728c-0.147,0.229-0.294,0.46-0.448,0.687c-0.154-0.231-0.302-0.458-0.451-0.681c0.154-0.233,0.301-0.464,0.451-0.694
				C84.42,23.264,84.57,23.489,84.721,23.728z M84.863,23.951c0.154,0.237,0.315,0.481,0.477,0.725
				c-0.153,0.231-0.301,0.464-0.448,0.694c-0.161-0.243-0.319-0.489-0.478-0.726C84.57,24.409,84.716,24.177,84.863,23.951z
				 M85.954,23.728c-0.152,0.239-0.313,0.481-0.47,0.725c-0.158-0.243-0.316-0.486-0.475-0.725c0.159-0.244,0.316-0.489,0.475-0.728
				C85.632,23.238,85.791,23.48,85.954,23.728z M86.531,24.614c-0.16,0.237-0.316,0.482-0.477,0.725
				c-0.142-0.225-0.284-0.443-0.427-0.658c0.16-0.249,0.316-0.493,0.47-0.73C86.239,24.167,86.383,24.383,86.531,24.614z
				 M86.674,24.834c0.154,0.239,0.313,0.479,0.47,0.73c-0.157,0.243-0.312,0.486-0.47,0.729c-0.159-0.243-0.312-0.492-0.47-0.729
				C86.361,25.319,86.514,25.076,86.674,24.834z M87.715,24.676c-0.138,0.221-0.285,0.444-0.422,0.663
				c-0.165-0.245-0.32-0.488-0.477-0.725c0.144-0.226,0.285-0.447,0.427-0.663C87.398,24.188,87.557,24.432,87.715,24.676z
				 M87.863,24.903c0.148,0.225,0.295,0.455,0.445,0.688c-0.138,0.222-0.286,0.438-0.424,0.662
				c-0.154-0.234-0.307-0.462-0.451-0.688C87.577,25.339,87.721,25.12,87.863,24.903z M88.928,24.638
				c-0.161,0.243-0.312,0.488-0.474,0.731c-0.151-0.235-0.301-0.467-0.447-0.694c0.158-0.244,0.312-0.488,0.47-0.725
				C88.626,24.171,88.771,24.406,88.928,24.638z M89.068,24.858c0.16,0.238,0.312,0.481,0.477,0.732
				c-0.158,0.243-0.317,0.486-0.477,0.729c-0.159-0.243-0.317-0.486-0.468-0.729C88.757,25.344,88.909,25.102,89.068,24.858z
				 M90.212,24.558c-0.18,0.268-0.35,0.538-0.528,0.811c-0.159-0.249-0.313-0.492-0.466-0.731c0.17-0.27,0.348-0.538,0.517-0.805
				C89.888,24.071,90.046,24.308,90.212,24.558z M90.35,24.781c0.147,0.215,0.285,0.438,0.434,0.665
				c-0.176,0.267-0.348,0.537-0.525,0.806c-0.143-0.224-0.286-0.445-0.429-0.662C90.012,25.319,90.177,25.05,90.35,24.781z
				 M91.395,24.494c-0.158,0.237-0.312,0.482-0.47,0.731c-0.142-0.23-0.29-0.45-0.429-0.667c0.159-0.243,0.32-0.487,0.471-0.726
				C91.11,24.046,91.249,24.269,91.395,24.494z M91.545,24.716c0.151,0.24,0.311,0.482,0.47,0.73
				c-0.152,0.238-0.311,0.48-0.47,0.726c-0.161-0.245-0.317-0.488-0.478-0.726C91.228,25.198,91.384,24.956,91.545,24.716z
				 M92.586,24.558c-0.143,0.223-0.279,0.438-0.427,0.661c-0.161-0.243-0.317-0.488-0.472-0.725c0.144-0.224,0.29-0.442,0.428-0.662
				C92.27,24.071,92.424,24.308,92.586,24.558z M93.217,25.538c-0.139,0.215-0.289,0.438-0.426,0.659
				c-0.167-0.253-0.328-0.507-0.484-0.751c0.135-0.22,0.284-0.443,0.421-0.665C92.891,25.028,93.056,25.277,93.217,25.538z
				 M93.363,25.759c0.158,0.237,0.317,0.48,0.471,0.723c-0.144,0.224-0.286,0.445-0.43,0.669c-0.157-0.244-0.317-0.493-0.469-0.73
				C93.079,26.197,93.219,25.976,93.363,25.759z M94.454,25.538c-0.161,0.237-0.319,0.48-0.477,0.721
				c-0.161-0.241-0.317-0.484-0.467-0.721c0.154-0.249,0.312-0.492,0.467-0.736C94.135,25.046,94.294,25.289,94.454,25.538z
				 M94.594,25.759c0.144,0.217,0.285,0.438,0.427,0.662c-0.158,0.243-0.316,0.486-0.467,0.73c-0.145-0.224-0.288-0.445-0.428-0.669
				C94.281,26.239,94.442,25.996,94.594,25.759z M95.615,25.506c-0.147,0.227-0.297,0.458-0.443,0.691
				c-0.15-0.221-0.292-0.444-0.433-0.659c0.148-0.234,0.299-0.466,0.449-0.693C95.33,25.06,95.468,25.283,95.615,25.506z
				 M95.765,25.727c0.151,0.243,0.305,0.487,0.463,0.731c-0.148,0.231-0.297,0.456-0.444,0.693c-0.157-0.244-0.316-0.493-0.471-0.73
				C95.464,26.188,95.615,25.958,95.765,25.727z M96.848,25.506c-0.154,0.241-0.312,0.484-0.47,0.727
				c-0.161-0.243-0.317-0.486-0.478-0.727c0.161-0.243,0.317-0.486,0.478-0.731C96.529,25.02,96.689,25.263,96.848,25.506z
				 M96.99,25.727c0.148,0.231,0.297,0.461,0.448,0.694c-0.156,0.243-0.309,0.486-0.467,0.73c-0.15-0.237-0.304-0.462-0.451-0.693
				C96.678,26.214,96.838,25.97,96.99,25.727z M98.016,25.538c-0.147,0.215-0.286,0.438-0.433,0.659
				c-0.148-0.233-0.297-0.464-0.445-0.691c0.144-0.223,0.286-0.446,0.423-0.661C97.711,25.072,97.865,25.304,98.016,25.538z
				 M98.629,26.482c-0.142,0.224-0.285,0.445-0.432,0.669c-0.161-0.244-0.312-0.488-0.466-0.73c0.139-0.224,0.286-0.445,0.425-0.662
				C98.312,25.996,98.471,26.239,98.629,26.482z M99.243,25.538c-0.151,0.237-0.312,0.48-0.468,0.721
				c-0.155-0.241-0.313-0.484-0.474-0.727c0.161-0.244,0.319-0.486,0.474-0.731C98.926,25.046,99.086,25.289,99.243,25.538z
				 M99.816,26.421c-0.155,0.243-0.312,0.486-0.467,0.73c-0.147-0.224-0.292-0.445-0.434-0.669c0.161-0.244,0.319-0.486,0.478-0.723
				C99.53,25.976,99.677,26.197,99.816,26.421z M100.448,25.446c-0.157,0.243-0.321,0.498-0.485,0.751
				c-0.143-0.221-0.286-0.444-0.428-0.659c0.164-0.261,0.321-0.51,0.486-0.757C100.165,25.003,100.301,25.219,100.448,25.446z
				 M101.062,26.395c-0.157,0.252-0.317,0.501-0.484,0.757c-0.161-0.244-0.312-0.488-0.472-0.73
				c0.162-0.255,0.329-0.508,0.488-0.751C100.75,25.907,100.906,26.152,101.062,26.395z M101.735,27.429
				c-0.164,0.247-0.328,0.503-0.494,0.753c-0.167-0.27-0.347-0.541-0.517-0.81c0.159-0.254,0.321-0.501,0.487-0.752
				C101.38,26.891,101.559,27.159,101.735,27.429z M102.347,26.473c-0.153,0.243-0.312,0.485-0.47,0.735
				c-0.175-0.274-0.35-0.544-0.524-0.813c0.158-0.243,0.317-0.488,0.47-0.725C102,25.932,102.175,26.201,102.347,26.473z
				 M102.49,26.701c0.158,0.244,0.316,0.487,0.476,0.729c-0.159,0.243-0.317,0.487-0.476,0.729
				c-0.153-0.243-0.312-0.487-0.466-0.729C102.179,27.187,102.337,26.945,102.49,26.701z M103.538,26.541
				c-0.144,0.222-0.284,0.444-0.428,0.667c-0.161-0.243-0.311-0.492-0.472-0.735c0.142-0.221,0.288-0.441,0.43-0.661
				C103.22,26.053,103.378,26.297,103.538,26.541z M104.109,27.429c-0.138,0.223-0.285,0.439-0.424,0.661
				c-0.148-0.221-0.286-0.438-0.432-0.661c0.146-0.221,0.284-0.445,0.432-0.667C103.824,26.984,103.971,27.208,104.109,27.429z
				 M104.256,27.652c0.161,0.243,0.313,0.485,0.473,0.731c-0.145,0.221-0.289,0.443-0.428,0.664
				c-0.161-0.243-0.32-0.489-0.477-0.728C103.971,28.097,104.109,27.87,104.256,27.652z M104.869,28.159
				c-0.156-0.243-0.312-0.487-0.468-0.729c0.157-0.242,0.317-0.485,0.468-0.729c0.16,0.244,0.319,0.487,0.477,0.729
				C105.188,27.672,105.029,27.916,104.869,28.159z M105.314,29.297c-0.137,0.223-0.284,0.443-0.428,0.669
				c-0.141-0.233-0.29-0.462-0.445-0.695c0.143-0.223,0.289-0.444,0.429-0.662C105.018,28.836,105.166,29.07,105.314,29.297z
				 M105.933,30.254c-0.144,0.223-0.286,0.444-0.428,0.667c-0.159-0.244-0.311-0.487-0.476-0.738
				c0.148-0.218,0.284-0.444,0.433-0.661C105.623,29.766,105.778,30.012,105.933,30.254z M106.075,31.81
				c-0.136-0.22-0.286-0.438-0.428-0.671c0.142-0.218,0.286-0.441,0.428-0.662c0.15,0.221,0.289,0.444,0.435,0.662
				C106.364,31.363,106.22,31.586,106.075,31.81z M106.075,33.722c-0.152-0.238-0.305-0.48-0.475-0.736
				c0.159-0.239,0.317-0.482,0.475-0.735c0.161,0.253,0.319,0.497,0.478,0.735C106.387,33.235,106.236,33.479,106.075,33.722z"/>
		</g>
		<g>
			<g>
				<path style="fill:#727271;" d="M73.764,23.538h-0.475c0,0-0.339,0.234,0.03,0.557h0.412L73.764,23.538z"/>
				<g>
					<path d="M74.526,22.538c0.043,0,0.085,0,0.128,0.012v2.538c-0.043,0.006-0.085,0.008-0.128,0.008
						c-0.571,0-0.879-0.482-1.037-1.031v-0.496C73.489,23,73.955,22.538,74.526,22.538z"/>
					<path style="fill:#ED3A0F;" d="M74.654,22.55c0,0,0.596,0.183,0.596,1.268c0.005,1.194-0.596,1.27-0.596,1.27V22.55z"/>
				</g>
			</g>
			<path style="fill:#FFD4A8;" d="M74.764,22.733c0,0,0.418,0.413,0.375,1.401c0,0-0.073-0.596-0.375-0.791V22.733z"/>
		</g>
		<g>
			<g>
				<path style="fill:#727271;" d="M47.382,4.013h0.47c0,0,0.344,0.233-0.025,0.556h-0.409L47.382,4.013z"/>
				<g>
					<path d="M46.62,3.015c-0.047,0-0.09,0-0.131,0.004v2.545c0.041,0.003,0.084,0.003,0.131,0.003c0.566,0,0.871-0.482,1.031-1.032
						V4.039C47.651,3.474,47.186,3.015,46.62,3.015z"/>
					<path style="fill:#ED3A0F;" d="M46.489,3.019c0,0-0.593,0.185-0.598,1.272c0,1.193,0.598,1.273,0.598,1.273V3.019z"/>
				</g>
			</g>
			<path style="fill:#FFD4A8;" d="M46.381,3.204c0,0-0.421,0.416-0.381,1.405c0,0,0.075-0.596,0.381-0.793V3.204z"/>
		</g>
		<path style="fill:#FFAF21;" d="M23.736,53.38h90.013c1.36,0,1.286-2.899,1.286-2.899s-0.805-0.449-1.157-1.755
			c-0.219-0.813-0.053-0.994-0.049-1.738c0-0.394,1.28,0.125,1.28-0.246c0-1.03-0.02-1.909-0.074-2.292
			c-0.158-1.209-2.169-0.964-2.169-0.964H77.874c0,0-7.965-37.245-8.69-39.494c-0.724-2.251-3.538-1.935-3.538-1.935h-16.81
			c-1.126-0.079-1.449,0.889-1.449,0.889s-0.401,1.526-0.481,2.412c-0.079,0.883,0.481,0.802,0.481,0.802h0.963l-2.328,12.954
			H34.198c-4.828,0.243-5.433,4.462-5.433,4.462L23.736,53.38z M49.664,7.528c0.239-1.267,1.566-1.32,1.566-1.32h3.438
			c1.27,0,1.448,1.925,1.448,1.925s0.202,6.345,0.424,13.065h-8.875L49.664,7.528z M55.391,38.354h-8.687
			c-1.63-0.118-1.202-2.351-1.202-2.351l1.935-13.248h9.148c0.218,6.578,0.435,13.084,0.494,13.974
			C57.194,38.597,55.391,38.354,55.391,38.354z M68.182,26.913h-9.496c-0.804-0.081-0.848-1.287-0.848-1.287
			s-0.84-16.812-0.76-18.26c0.085-1.444,1.693-1.126,1.693-1.126h4.103c0,0,0.782,0.021,1.931-0.026
			c1.146-0.055,1.385,0.952,1.385,0.952s3.019,17.011,3.257,18.34C69.69,26.832,68.182,26.913,68.182,26.913z"/>
		<path style="fill:#CA7123;" d="M27.365,31.884c16.336-0.02,21.047,15.691,21.047,15.691h24.074
			c0.941-3.974,3.162-7.639,4.272-9.305c0.677,3.166,1.117,5.215,1.117,5.215h34.991c0,0,2.011-0.244,2.169,0.964
			c0.053,0.384,0.074,1.262,0.074,2.292c0,0.37-1.28-0.148-1.28,0.246c-0.004,0.744-0.17,0.925,0.049,1.738
			c0.352,1.305,1.157,1.755,1.157,1.755s0.074,2.899-1.286,2.899H23.736L27.365,31.884z"/>
		<path style="fill:#0F0F0F;" d="M24.869,46.664l0.258-1.528h89.955c0.016,0.413,0.027,0.948,0.027,1.528H24.869z"/>
		<path style="fill:#0F0F0F;" d="M25.766,41.355l0.289-1.692h51.001c0.135,0.635,0.254,1.2,0.358,1.692H25.766z"/>
		<path style="fill:#0F0F0F;" d="M113.913,48.831c0.366,1.227,1.122,1.65,1.122,1.65s0.074,2.899-1.286,2.899H23.736l0.77-4.548
			H113.913z"/>
		<path style="fill:#FFDE6B;" d="M59.973,2.341h6.478c0,0,1.931-0.079,2.576,2.212c0.645,2.296,7.561,35.273,7.561,35.273
			L66.975,6.805c0,0-0.245-2.208-2.212-2.333c-1.972-0.119-15.084,0-15.084,0s-1.33-0.4-1.446-1.568c0,0-0.2-0.562,0.962-0.562
			H59.973z"/>
		<path style="opacity:0.3;fill:#9BE9E3;" d="M55.384,6.24h0.77c0,0,0.503-0.096,0.96,0.062c0.225,0.245,0.447,0.482,0.668,0.719
			c0.034,0.107,0.054,0.219,0.065,0.345c0.011,0.191,0,0.629-0.011,1.257C57.026,7.823,56.208,7.027,55.384,6.24z"/>
		<path style="fill:#FFDE6B;" d="M44.669,40.054c0,0.549,0.444,0.995,0.995,0.995h26.481c0.551,0,1.001-0.446,1.001-0.995l0,0
			c0-0.556-0.45-1-1.001-1H45.664C45.113,39.054,44.669,39.499,44.669,40.054L44.669,40.054z"/>
		<path style="fill:#FF9921;" d="M44.669,40.349c0,0.392,0.444,0.7,0.995,0.7h26.481c0.551,0,1.001-0.308,1.001-0.7l0,0
			c0-0.387-0.45-0.7-1.001-0.7H45.664C45.113,39.649,44.669,39.963,44.669,40.349L44.669,40.349z"/>
		<path style="fill:#FFFFFF;" d="M68.73,4.569c0,0-0.296-1.835-2.591-1.957H50.57c0,0-0.751,0.032-0.296,0.272
			c0.456,0.243,15.653,0.32,15.653,0.32s1.149-0.07,1.929,1.087c0,0,0.335,0.649,0.789,0.643C68.835,4.934,68.73,4.569,68.73,4.569z
			"/>
		<path style="fill:#E87221;" d="M44.669,20.962l-3.016,14.877c0,0-5.689-5.04-12.414-4.648l1.067-7.153c0,0,1.63-3.799,5.658-3.556
			C39.984,20.719,44.669,20.962,44.669,20.962z"/>
		<path style="fill:#FFAF21;" d="M44.193,21.332L41.431,35.26c0,0-4.993-4.461-11.862-4.461l0.999-6.399c0,0,1.534-3.839,5.554-3.6
			C40.152,21.044,44.193,21.332,44.193,21.332z"/>
		<path style="fill:#FFFFFF;" d="M45.451,19.462l-10.832,0.014c0,0-4.219-0.221-5.38,4.008c0,0,1.903-3.546,5.198-3.557
			c3.299-0.012,10.936,0.167,10.936,0.167L45.451,19.462z"/>
		<g>
			<path style="opacity:0.4;fill:#FF9921;" d="M70.09,53.258V41.05h-1.212v1.748H58.293V41.05h-1.207v12.209h1.207v-2.423h10.585
				v2.423H70.09z M68.879,49.369H58.293v-5.106h10.585V49.369z"/>
			<g>
				<rect x="57.087" y="42.068" style="fill:#666666;" width="13.004" height="1.503"/>
				<rect x="57.847" y="42.279" style="fill:#BDBDBD;" width="11.4" height="0.253"/>
				<rect x="57.087" y="48.808" style="fill:#666666;" width="13.004" height="1.5"/>
				<rect x="57.087" y="55.547" style="fill:#666666;" width="13.004" height="1.502"/>
				<rect x="69.423" y="40.282" style="fill:#666666;" width="1.327" height="18.603"/>
				<rect x="56.42" y="40.282" style="fill:#666666;" width="1.331" height="18.603"/>
				<rect x="57.847" y="49.035" style="fill:#BDBDBD;" width="11.4" height="0.256"/>
				<rect x="57.847" y="55.934" style="fill:#BDBDBD;" width="11.4" height="0.252"/>
			</g>
			<rect x="69.99" y="40.507" style="fill:#BDBDBD;" width="0.444" height="18.098"/>
			<rect x="57.087" y="40.507" style="fill:#BDBDBD;" width="0.443" height="18.098"/>
		</g>
		<path style="fill:#FF9921;" d="M104.722,34.045c0,0-1.65-2.343-2.56-3.148c0,0-0.921-0.941-2.2-1.013
			c-1.28-0.069-14.638-0.662-14.638-0.662l13.918,1.016c0,0,1.513,0.069,2.439,0.748C102.607,31.661,104.722,34.045,104.722,34.045z
			"/>
		<path style="fill:#FF9921;" d="M110.455,36.17l-2.042-7.48c0,0-0.987-3.545-3.7-4.459c0,0-4.561-1.269-11.778-2.25
			c-7.218-0.976-10.587-1.5-10.587-1.5l15.709,2.758l5.786,1.176c0,0,2.296,0.635,3.279,2.736
			C108.298,29.657,110.455,36.17,110.455,36.17z"/>
		<g>
			<path style="fill:#292929;" d="M66.627,6.271c0,0-0.433-1.206-1.935-1.206H50.98c0,0-1.936-0.08-2.194,0.969
				c-0.266,1.042-4.888,30.646-4.888,30.646s-0.562,2.343,1.723,2.458h24.697c0,0,1.545-0.357,1.449-1.745L66.627,6.271z
				 M49.63,7.528c0.239-1.267,1.566-1.32,1.566-1.32h3.438c1.27,0,1.449,1.925,1.449,1.925s0.202,6.345,0.424,13.065h-8.875
				L49.63,7.528z M55.357,38.354h-8.687c-1.63-0.118-1.202-2.351-1.202-2.351l1.935-13.248h9.148
				c0.218,6.578,0.435,13.084,0.494,13.974C57.161,38.597,55.357,38.354,55.357,38.354z M68.149,26.913h-9.496
				c-0.804-0.081-0.848-1.287-0.848-1.287s-0.84-16.812-0.76-18.26c0.085-1.444,1.693-1.126,1.693-1.126h4.103
				c0,0,0.782,0.021,1.931-0.026c1.146-0.055,1.385,0.952,1.385,0.952s3.019,17.011,3.257,18.34
				C69.657,26.832,68.149,26.913,68.149,26.913z"/>
		</g>
		<path style="opacity:0.3;fill:#00A8E3;" d="M66.157,7.166c0,0-0.239-1.007-1.385-0.952c-1.149,0.047-1.931,0.026-1.931,0.026
			h-4.103c0,0-1.608-0.318-1.693,1.126c-0.08,1.448,0.76,18.26,0.76,18.26s0.043,1.205,0.848,1.287h9.496
			c0,0,1.508-0.081,1.265-1.407C69.175,24.177,66.157,7.166,66.157,7.166z"/>
		<path style="opacity:0.3;fill:#9BE9E3;" d="M57.839,25.891c2.147-2.053,4.356-4.034,6.556-6.023
			c1.153-1.042,2.308-2.086,3.457-3.12c-0.396-2.249-0.801-4.526-1.114-6.299c-3.105,2.919-6.197,5.849-9.237,8.838
			c0.157,3.469,0.305,6.34,0.305,6.34S57.812,25.74,57.839,25.891z"/>
		<path style="opacity:0.3;fill:#00A8E3;" d="M56.082,8.133c0,0-0.179-1.925-1.449-1.925h-3.438c0,0-1.326,0.053-1.566,1.32
			l-2,13.67h8.875C56.284,14.479,56.082,8.133,56.082,8.133z"/>
		<path style="opacity:0.3;fill:#9BE9E3;" d="M55.565,21.199h0.94c-0.011-0.299-0.022-0.599-0.031-0.904
			C56.166,20.599,55.871,20.899,55.565,21.199z"/>
		<path style="opacity:0.3;fill:#9BE9E3;" d="M56.125,9.56c-0.027-0.904-0.043-1.426-0.043-1.426s0-0.006,0-0.011
			c-1.098,1.168-2.198,2.332-3.294,3.506c-1.508,1.619-2.999,3.245-4.475,4.898l-0.205,1.394
			C50.752,15.104,53.418,12.311,56.125,9.56z"/>
		<path style="opacity:0.3;fill:#00A8E3;" d="M56.552,22.755h-9.148l-1.935,13.248c0,0-0.428,2.233,1.202,2.351h8.687
			c0,0,1.804,0.243,1.688-1.625C56.987,35.839,56.77,29.333,56.552,22.755z"/>
		<path style="opacity:0.3;fill:#9BE9E3;" d="M48.192,35.586c2.644-2.571,5.166-5.253,7.768-7.86c0.24-0.236,0.488-0.48,0.735-0.72
			c-0.052-1.374-0.097-2.813-0.144-4.252h-2.527c-2.575,2.609-5.115,5.247-7.616,7.929c-0.066,0.069-0.131,0.135-0.196,0.212
			l-0.744,5.107c0,0-0.221,1.184,0.285,1.877C46.579,37.129,47.395,36.36,48.192,35.586z"/>
		<path d="M64.851,6.697c0.63,0,0.804,0.462,0.835,0.574c0.116,0.671,3.021,17.028,3.257,18.325c0.057,0.33-0.052,0.47-0.084,0.518
			c-0.181,0.225-0.58,0.306-0.729,0.318h-9.446c-0.337-0.061-0.391-0.816-0.391-0.826c-0.296-5.805-0.825-17.088-0.762-18.215
			c0.011-0.207,0.038-0.694,0.836-0.694c0.158,0,0.275,0.02,0.275,0.02l0,0l0.049,0.01h0.048h4.092c0.032,0,0.191,0,0.435,0
			c0.336,0,0.871-0.006,1.522-0.03C64.807,6.697,64.83,6.697,64.851,6.697L64.851,6.697z M64.851,6.208
			c-0.027,0-0.052,0-0.079,0.006c-0.642,0.026-1.171,0.032-1.507,0.032c-0.27,0-0.424-0.006-0.424-0.006h-4.103
			c0,0-0.155-0.026-0.371-0.026c-0.477,0-1.263,0.152-1.322,1.153c-0.08,1.448,0.76,18.26,0.76,18.26s0.043,1.205,0.848,1.287h9.496
			c0,0,1.508-0.081,1.265-1.407c-0.239-1.329-3.257-18.34-3.257-18.34S65.93,6.208,64.851,6.208L64.851,6.208z"/>
		<path d="M54.633,6.697c0.116,0,0.466,0,0.751,0.644c0.158,0.368,0.212,0.755,0.218,0.825c0.009,0.37,0.195,6.227,0.402,12.554
			h-7.812l1.909-13.11c0.162-0.825,0.99-0.911,1.106-0.912H54.633L54.633,6.697z M54.633,6.208h-3.438c0,0-1.326,0.053-1.566,1.32
			l-2,13.67h8.875c-0.222-6.72-0.424-13.065-0.424-13.065S55.903,6.208,54.633,6.208L54.633,6.208z"/>
		<path d="M56.082,23.238c0.275,8.24,0.435,12.787,0.477,13.521c0.025,0.385-0.048,0.671-0.211,0.853
			c-0.224,0.238-0.593,0.274-0.795,0.274c-0.08,0-0.131-0.005-0.131-0.005l0,0l-0.034-0.005h-0.031H46.69
			c-0.243-0.021-0.417-0.106-0.54-0.272c-0.327-0.416-0.258-1.23-0.211-1.512l0.007-0.013l0.004-0.007l1.872-12.834H56.082
			L56.082,23.238z M56.552,22.755h-9.148l-1.935,13.248c0,0-0.428,2.233,1.202,2.351h8.687c0,0,0.081,0.013,0.196,0.013
			c0.467,0,1.582-0.157,1.492-1.638C56.987,35.839,56.77,29.333,56.552,22.755L56.552,22.755z"/>
		<g>
			<path style="fill:#292929;" d="M71.207,37.831c0,0.274-0.229,0.503-0.508,0.503c-0.274,0-0.497-0.229-0.497-0.503
				c0-0.277,0.223-0.5,0.497-0.5C70.979,37.331,71.207,37.554,71.207,37.831z"/>
			<path style="fill:#292929;" d="M70.223,32.74c0,0.282-0.223,0.502-0.498,0.502c-0.284,0-0.506-0.22-0.506-0.502
				c0-0.276,0.221-0.504,0.506-0.504C70,32.237,70.223,32.465,70.223,32.74z"/>
			<path style="fill:#292929;" d="M69.293,27.71c0,0.282-0.222,0.505-0.499,0.505c-0.279,0-0.506-0.223-0.506-0.505
				c0-0.28,0.227-0.502,0.506-0.502C69.07,27.208,69.293,27.429,69.293,27.71z"/>
			<path style="fill:#292929;" d="M58.437,37.831c0,0.274-0.228,0.503-0.503,0.503c-0.28,0-0.504-0.229-0.504-0.503
				c0-0.277,0.224-0.5,0.504-0.5C58.209,37.331,58.437,37.554,58.437,37.831z"/>
			<path style="fill:#292929;" d="M65.158,37.831c0,0.274-0.234,0.503-0.509,0.503c-0.274,0-0.503-0.229-0.503-0.503
				c0-0.277,0.229-0.5,0.503-0.5C64.924,37.331,65.158,37.554,65.158,37.831z"/>
		</g>
		<g>
			<path style="fill:none;" d="M46.671,38.354h8.687c0,0,1.804,0.243,1.688-1.625c-0.058-0.89-0.275-7.396-0.494-13.974h-9.148
				l-1.935,13.248C45.469,36.003,45.041,38.236,46.671,38.354z"/>
			<path style="fill:none;" d="M56.082,8.133c0,0-0.179-1.925-1.449-1.925h-3.438c0,0-1.326,0.053-1.566,1.32l-2,13.67h8.875
				C56.284,14.479,56.082,8.133,56.082,8.133z"/>
			<path style="fill:none;" d="M58.653,26.913h9.496c0,0,1.508-0.081,1.265-1.407c-0.239-1.329-3.257-18.34-3.257-18.34
				s-0.239-1.007-1.385-0.952c-1.149,0.047-1.931,0.026-1.931,0.026h-4.103c0,0-1.608-0.318-1.693,1.126
				c-0.08,1.448,0.76,18.26,0.76,18.26S57.849,26.832,58.653,26.913z"/>
		</g>
		<polygon style="fill:#CA7123;" points="68.892,19.113 72.382,38.054 73.069,37.405 		"/>
	</g>
	<g>
		<g>
			<g>
				<path style="fill:#0F0F0F;" d="M77.997,54.304c0,8.315,6.743,15.059,15.063,15.059c8.324,0,15.065-6.743,15.065-15.059
					c0-8.316-6.741-15.066-15.065-15.066C84.74,39.238,77.997,45.988,77.997,54.304z"/>
				<path style="fill:#292929;" d="M78.376,54.457v-0.703l-0.911,0.153c0.046-1.842,0.413-3.605,1.042-5.236l0.998,0.075
					l0.273-0.645l-0.939-0.221c0.742-1.632,1.746-3.111,2.97-4.385l0.919,0.465l0.503-0.49l-0.805-0.582
					c1.318-1.229,2.845-2.235,4.524-2.949l0.681,0.814l0.656-0.259l-0.528-0.869c1.538-0.56,3.186-0.875,4.904-0.919l0.335,1.003
					h0.703l-0.171-0.998c1.85,0.051,3.622,0.431,5.253,1.076l-0.079,1.051l0.65,0.273l0.226-0.988
					c1.631,0.753,3.112,1.776,4.382,3.017l-0.47,0.923l0.489,0.495l0.581-0.801c1.219,1.329,2.207,2.87,2.908,4.56l-0.769,0.641
					l0.256,0.656l0.822-0.494c0.539,1.538,0.848,3.189,0.877,4.904l-0.911,0.309v0.7l0.901-0.156
					c-0.065,1.844-0.455,3.605-1.109,5.229l-0.923-0.071l-0.273,0.645l0.863,0.204c-0.76,1.616-1.782,3.086-3.015,4.344
					l-0.798-0.409l-0.502,0.494l0.695,0.503c-1.319,1.203-2.856,2.188-4.536,2.887l-0.559-0.67l-0.655,0.256l0.432,0.712
					c-1.532,0.545-3.168,0.847-4.869,0.888l-0.277-0.816H92.42l0.138,0.809c-1.834-0.057-3.589-0.429-5.211-1.072l0.066-0.867
					l-0.644-0.27l-0.189,0.814c-1.624-0.744-3.092-1.752-4.354-2.972l0.402-0.794l-0.492-0.5l-0.497,0.694
					c-1.224-1.308-2.22-2.826-2.931-4.499l0.711-0.597l-0.255-0.651l-0.768,0.46c-0.556-1.527-0.872-3.164-0.925-4.875
					L78.376,54.457z"/>
				<g>
					<path style="fill:#0F0F0F;" d="M79.296,54.294c0,7.606,6.163,13.765,13.764,13.765c7.601,0,13.766-6.158,13.766-13.765
						c0-7.596-6.164-13.759-13.766-13.759C85.459,40.535,79.296,46.698,79.296,54.294z"/>
					<g>
						<path style="opacity:0.5;fill:#636363;" d="M80.349,51.285c-0.693,1.923-0.75,3.896-0.739,5.901
							c-0.2-0.934-0.314-1.894-0.314-2.892c0-7.596,6.163-13.759,13.764-13.759c7.601,0,13.766,6.163,13.766,13.759
							c0,1.648-0.294,3.219-0.821,4.679c0.026-0.104,0.054-0.206,0.082-0.318c0.328-1.488,0.359-2.959,0.171-4.469
							c-0.005-0.044-0.008-0.082-0.018-0.123c-0.408-6.924-6.15-12.414-13.178-12.414C87.005,41.649,81.904,45.725,80.349,51.285z"
							/>
						<path style="fill:#1C1C1C;" d="M92.384,68.044c0.222,0.01,0.443,0.015,0.676,0.015C92.827,68.059,92.606,68.054,92.384,68.044
							z"/>
						<path style="fill:#1C1C1C;" d="M93.06,68.059c0.229,0,0.456-0.004,0.678-0.015C93.516,68.054,93.289,68.059,93.06,68.059z"/>
					</g>
					<path style="fill:#1C1C1C;" d="M84.14,54.176c0,4.926,3.995,8.919,8.919,8.919c4.926,0,8.921-3.993,8.921-8.919
						c0-4.926-3.994-8.919-8.921-8.919C88.135,45.257,84.14,49.25,84.14,54.176z"/>
					<path style="fill:#EDEDED;" d="M85.289,54.294c0,4.293,3.479,7.771,7.771,7.771c4.293,0,7.767-3.478,7.767-7.771
						c0-4.287-3.474-7.767-7.767-7.767C88.769,46.527,85.289,50.007,85.289,54.294z"/>
					<path style="fill:#6E460D;" d="M85.725,54.322c0,4.052,3.281,7.337,7.335,7.337c4.055,0,7.335-3.286,7.335-7.337
						c0-4.052-3.28-7.339-7.335-7.339C89.006,46.983,85.725,50.27,85.725,54.322z"/>
					<path style="fill:#FF9921;" d="M86.811,54.445c0,3.452,2.799,6.25,6.249,6.25c3.452,0,6.25-2.798,6.25-6.25
						c0-3.452-2.798-6.248-6.25-6.248C89.61,48.197,86.811,50.994,86.811,54.445z"/>
					<path style="fill:#FCBF29;" d="M88.968,54.29c0,2.263,1.83,4.096,4.091,4.096c2.262,0,4.092-1.833,4.092-4.096
						c0-2.261-1.83-4.091-4.092-4.091C90.799,50.198,88.968,52.029,88.968,54.29z"/>
					<g>
						<g>
							<path style="fill:#FCBF29;" d="M92.658,49.055c0,0.219,0.181,0.396,0.394,0.396c0.212,0,0.393-0.177,0.393-0.396
								c0-0.213-0.182-0.387-0.393-0.387C92.839,48.668,92.658,48.841,92.658,49.055z"/>
							<path style="fill:#FCBF29;" d="M92.678,59.541c0,0.212,0.179,0.388,0.392,0.388c0.214,0,0.393-0.176,0.393-0.388
								c0-0.221-0.179-0.397-0.393-0.397C92.858,59.144,92.678,59.32,92.678,59.541z"/>
							<path style="fill:#FCBF29;" d="M87.821,54.698c0.217,0,0.39-0.175,0.39-0.394c0-0.215-0.172-0.391-0.39-0.391
								c-0.219,0-0.39,0.176-0.39,0.391C87.431,54.523,87.602,54.698,87.821,54.698z"/>
							<path style="fill:#FCBF29;" d="M98.301,54.681c0.218,0,0.387-0.179,0.387-0.391c0-0.219-0.17-0.394-0.387-0.394
								c-0.22,0-0.39,0.175-0.39,0.394C97.911,54.501,98.081,54.681,98.301,54.681z"/>
						</g>
						<g>
							<path style="fill:#FCBF29;" d="M89.074,50.875c0.149,0.153,0.398,0.153,0.549,0c0.15-0.151,0.15-0.403,0-0.554
								c-0.151-0.153-0.4-0.153-0.549,0C88.921,50.472,88.921,50.723,89.074,50.875z"/>
							<path style="fill:#FCBF29;" d="M96.497,58.274c0.153,0.15,0.399,0.15,0.55,0c0.153-0.151,0.153-0.403,0-0.556
								c-0.152-0.151-0.398-0.151-0.55,0C96.345,57.871,96.345,58.122,96.497,58.274z"/>
							<path style="fill:#FCBF29;" d="M89.638,58.283c0.155-0.153,0.155-0.4,0-0.551c-0.152-0.151-0.398-0.151-0.55,0
								c-0.159,0.151-0.159,0.398,0,0.551C89.24,58.438,89.486,58.438,89.638,58.283z"/>
							<path style="fill:#FCBF29;" d="M97.034,50.863c0.158-0.151,0.158-0.399,0-0.551c-0.152-0.153-0.398-0.153-0.554,0
								c-0.152,0.153-0.152,0.4,0,0.551C96.636,51.014,96.881,51.014,97.034,50.863z"/>
						</g>
					</g>
				</g>
			</g>
			<g>
				<path style="fill:#292929;" d="M109.766,54.675c0-9.219-7.501-16.715-16.715-16.715c-9.213,0-16.714,7.496-16.714,16.715
					c0,0.056,0.003,0.118,0.01,0.173h-1.736c0-0.056,0-0.118,0-0.173c0-10.172,8.267-18.446,18.44-18.446
					c10.17,0,18.439,8.274,18.439,18.446c0,0.094,0,0.188,0,0.282h-1.735C109.756,54.863,109.766,54.769,109.766,54.675z"/>
				<g>
					<path style="opacity:0.5;fill:#949494;" d="M92.839,36.951c-7.237,0-13.515,4.139-16.607,10.175
						c2.888-6.414,9.342-10.896,16.82-10.896c10.17,0,18.439,8.274,18.439,18.446c0,0.094,0,0.188,0,0.282h-0.014
						C111.135,44.967,102.908,36.951,92.839,36.951z"/>
				</g>
			</g>
		</g>
		<g>
			<g>
				<path style="fill:#0F0F0F;" d="M6.255,48.115c0,11.823,9.585,21.411,21.411,21.411c11.823,0,21.413-9.588,21.413-21.411
					c0-11.825-9.59-21.422-21.413-21.422C15.841,26.693,6.255,36.29,6.255,48.115z"/>
				<path style="fill:#292929;" d="M6.795,48.332v-0.999L5.499,47.55c0.063-2.619,0.579-5.125,1.478-7.446l1.42,0.107l0.384-0.918
					L7.443,38.98c1.05-2.32,2.493-4.423,4.232-6.236l1.301,0.66l0.707-0.696l-1.14-0.828c1.868-1.747,4.045-3.177,6.441-4.193
					l0.964,1.158l0.923-0.368l-0.742-1.236c2.186-0.796,4.531-1.244,6.972-1.306l0.479,1.426h0.996l-0.241-1.419
					c2.63,0.073,5.144,0.612,7.469,1.53l-0.113,1.495l0.914,0.389l0.339-1.405c2.319,1.07,4.422,2.525,6.221,4.289l-0.664,1.313
					l0.698,0.704l0.824-1.139c1.726,1.89,3.141,4.081,4.139,6.484l-1.099,0.912l0.367,0.932l1.165-0.702
					c0.767,2.186,1.201,4.534,1.242,6.973l-1.297,0.439v0.995l1.288-0.222c-0.093,2.621-0.64,5.125-1.568,7.435l-1.322-0.1
					l-0.384,0.918l1.22,0.291c-1.072,2.297-2.524,4.388-4.289,6.177l-1.132-0.581l-0.71,0.702l0.987,0.715
					c-1.881,1.71-4.054,3.111-6.437,4.105l-0.805-0.953l-0.93,0.364l0.615,1.012c-2.172,0.776-4.505,1.204-6.932,1.263l-0.384-1.16
					h-0.997l0.195,1.15c-2.609-0.082-5.098-0.61-7.403-1.524l0.094-1.233l-0.925-0.384l-0.27,1.158
					c-2.298-1.058-4.388-2.492-6.192-4.227l0.575-1.129l-0.699-0.711l-0.715,0.986c-1.725-1.86-3.149-4.017-4.166-6.396l1.017-0.848
					l-0.37-0.926l-1.086,0.654c-0.79-2.172-1.247-4.499-1.315-6.932L6.795,48.332z"/>
				<g>
					<path style="fill:#0F0F0F;" d="M8.101,48.1c0,10.815,8.752,19.572,19.566,19.572c10.809,0,19.566-8.757,19.566-19.572
						c0-10.801-8.757-19.564-19.566-19.564C16.853,28.537,8.101,37.299,8.101,48.1z"/>
					<g>
						<path style="opacity:0.5;fill:#636363;" d="M9.584,43.821c-0.971,2.734-1.059,5.539-1.051,8.391
							C8.25,50.884,8.101,49.52,8.101,48.1c0-10.801,8.752-19.564,19.566-19.564c10.809,0,19.566,8.763,19.566,19.564
							c0,2.343-0.405,4.578-1.16,6.654c0.04-0.148,0.082-0.293,0.109-0.452c0.471-2.116,0.512-4.208,0.251-6.355
							c-0.006-0.063-0.024-0.117-0.024-0.176c-0.585-9.846-8.751-17.651-18.741-17.651C19.049,30.121,11.811,35.916,9.584,43.821z"
							/>
						<path style="fill:#1C1C1C;" d="M26.696,67.651c0.327,0.015,0.647,0.021,0.971,0.021
							C27.343,67.672,27.023,67.666,26.696,67.651z"/>
						<path style="fill:#1C1C1C;" d="M27.667,67.672c0.324,0,0.645-0.006,0.964-0.021C28.312,67.666,27.991,67.672,27.667,67.672z"
							/>
					</g>
					<path style="fill:#1C1C1C;" d="M14.98,47.933c0,7.005,5.682,12.682,12.686,12.682c6.999,0,12.682-5.677,12.682-12.682
						c0-7.005-5.683-12.682-12.682-12.682C20.662,35.251,14.98,40.928,14.98,47.933z"/>
					<path style="fill:#EDEDED;" d="M16.621,48.1c0,6.104,4.952,11.05,11.045,11.05c6.094,0,11.042-4.946,11.042-11.05
						c0-6.096-4.949-11.043-11.042-11.043C21.574,37.057,16.621,42.005,16.621,48.1z"/>
					<path style="fill:#6E460D;" d="M17.231,48.14c0,5.761,4.678,10.433,10.436,10.433c5.758,0,10.437-4.672,10.437-10.433
						s-4.679-10.435-10.437-10.435C21.909,37.705,17.231,42.379,17.231,48.14z"/>
					<path style="fill:#FF9921;" d="M18.78,48.315c0,4.908,3.978,8.886,8.887,8.886c4.909,0,8.887-3.978,8.887-8.886
						c0-4.908-3.978-8.884-8.887-8.884C22.758,39.432,18.78,43.407,18.78,48.315z"/>
					<path style="fill:#FCBF29;" d="M21.84,48.094c0,3.217,2.611,5.824,5.827,5.824c3.217,0,5.828-2.606,5.828-5.824
						c0-3.215-2.611-5.817-5.828-5.817C24.451,42.277,21.84,44.879,21.84,48.094z"/>
					<g>
						<g>
							<path style="fill:#FCBF29;" d="M27.101,40.65c0,0.312,0.242,0.562,0.552,0.562c0.309,0,0.554-0.251,0.554-0.562
								c0-0.303-0.245-0.55-0.554-0.55C27.343,40.1,27.101,40.347,27.101,40.65z"/>
							<path style="fill:#FCBF29;" d="M27.128,55.561c0,0.301,0.242,0.552,0.551,0.552c0.304,0,0.555-0.251,0.555-0.552
								c0-0.314-0.251-0.564-0.555-0.564C27.369,54.996,27.128,55.247,27.128,55.561z"/>
							<path style="fill:#FCBF29;" d="M20.217,48.675c0.305,0,0.553-0.249,0.553-0.56c0-0.305-0.248-0.556-0.553-0.556
								c-0.303,0-0.558,0.251-0.558,0.556C19.659,48.426,19.914,48.675,20.217,48.675z"/>
							<path style="fill:#FCBF29;" d="M35.118,48.65c0.303,0,0.553-0.255,0.553-0.556c0-0.311-0.25-0.56-0.553-0.56
								c-0.306,0-0.561,0.249-0.561,0.56C34.557,48.395,34.812,48.65,35.118,48.65z"/>
						</g>
						<g>
							<path style="fill:#FCBF29;" d="M21.997,43.238c0.215,0.217,0.567,0.217,0.787,0c0.216-0.215,0.216-0.573,0-0.788
								c-0.22-0.218-0.572-0.218-0.787,0C21.78,42.665,21.78,43.023,21.997,43.238z"/>
							<path style="fill:#FCBF29;" d="M32.55,53.759c0.213,0.213,0.566,0.213,0.782,0c0.222-0.215,0.222-0.573,0-0.79
								c-0.215-0.215-0.569-0.215-0.782,0C32.335,53.186,32.335,53.543,32.55,53.759z"/>
							<path style="fill:#FCBF29;" d="M22.802,53.771c0.213-0.217,0.213-0.569,0-0.784c-0.219-0.215-0.568-0.215-0.784,0
								c-0.217,0.215-0.217,0.566,0,0.784C22.233,53.993,22.582,53.993,22.802,53.771z"/>
							<path style="fill:#FCBF29;" d="M33.317,43.221c0.216-0.215,0.216-0.567,0-0.784c-0.216-0.217-0.564-0.217-0.784,0
								c-0.214,0.217-0.214,0.569,0,0.784C32.753,43.437,33.101,43.437,33.317,43.221z"/>
						</g>
					</g>
				</g>
			</g>
			<g>
				<path style="fill:#292929;" d="M50.927,49.2c0.014-0.196,0.02-0.391,0.02-0.587c0-13.106-10.657-23.763-23.767-23.763
					c-10.003,0-18.58,6.213-22.071,14.994c-0.73-0.408-1.453-0.823-2.157-1.26C6.902,29.08,16.273,22.389,27.18,22.389
					c14.462,0,26.229,11.767,26.229,26.224c0,0.196-0.014,0.391-0.014,0.587H50.927z"/>
				<g>
					<path style="opacity:0.5;fill:#949494;" d="M26.778,23.44c-10.29,0-19.217,5.885-23.611,14.467
						c4.104-9.12,13.281-15.494,23.914-15.494c14.461,0,26.225,11.764,26.225,26.228c0,0.134-0.006,0.267-0.006,0.401h-0.014
						C52.794,34.839,41.096,23.44,26.778,23.44z"/>
				</g>
			</g>
		</g>
	</g>
</g>
</svg>
